<?xml version="1.0" encoding="utf-8"?>
<!-- Generator: Adobe Illustrator 22.1.0, SVG Export Plug-In . SVG Version: 6.00 Build 0)  -->
<svg version="1.1" id="Layer_1" xmlns="http://www.w3.org/2000/svg" xmlns:xlink="http://www.w3.org/1999/xlink" x="0px" y="0px"
	 viewBox="0 0 856 540" style="enable-background:new 0 0 856 540;" xml:space="preserve">
<style type="text/css">
	.st0{fill:url(#SVGID_1_);}
	.st1{fill:url(#SVGID_2_);}
</style>
<g id="Layer_1_1_">
	<g>
		
			<linearGradient id="SVGID_1_" gradientUnits="userSpaceOnUse" x1="428" y1="2" x2="428" y2="542" gradientTransform="matrix(1 0 0 -1 0 542)">
			<stop  offset="0" style="stop-color:#FF8E33"/>
			<stop  offset="1" style="stop-color:#E79F27"/>
		</linearGradient>
		<rect class="st0" width="856" height="540"/>
	</g>
	<g>
		
			<linearGradient id="SVGID_2_" gradientUnits="userSpaceOnUse" x1="428.3222" y1="107.5" x2="428.3222" y2="437.1" gradientTransform="matrix(1 0 0 -1 0 542)">
			<stop  offset="0.3335" style="stop-color:#FCE7CF"/>
			<stop  offset="1" style="stop-color:#FFFFFF"/>
		</linearGradient>
		<path class="st1" d="M580.7,387.9c-41.3,30.4-101.2,46.6-152.8,46.6c-72.3,0-137.4-26.6-186.6-71c-3.9-3.5-0.4-8.2,4.2-5.5
			c53.1,30.8,118.9,49.4,186.7,49.4c45.8,0,96.1-9.5,142.4-29.1C581.7,375.4,587.6,382.9,580.7,387.9z M615.6,355
			c-4.5-5.5-43.2-10.3-66.9,6.2c-3.6,2.5-3,6.1,1,5.6c13.3-1.6,43-5.1,48.2,1.6c5.3,6.7-5.9,34.5-10.9,47c-1.5,3.8,1.7,5.3,5.1,2.4
			C614.4,399.3,620.1,360.6,615.6,355z M449.2,197.9c0-10.8,0.9-23.6-5.5-33c-5.5-8.4-16.2-11.8-25.6-11.8
			c-17.4,0-32.9,8.9-36.6,27.3c-0.8,4.1-3.8,8.2-7.9,8.4l-44.2-4.8c-3.7-0.8-7.9-3.8-6.8-9.5c10.2-53.4,58.6-69.6,102-69.6
			c22.2,0,51.2,5.9,68.7,22.6c22.2,20.7,20,48.2,20,78.2v70.8c0,21.3,8.9,30.6,17.2,42.1c2.9,4.1,3.6,9.1-0.1,12.1
			c-9.3,7.8-25.9,22.1-35,30.2l-0.1-0.1c-3,2.7-7.4,2.9-10.8,1.1c-15.2-12.5-17.9-18.3-26.1-30.3c-25,25.4-42.8,33-75.2,33
			c-38.4,0-68.2-23.6-68.2-70.8c0-36.9,20-62,48.6-74.3c24.7-10.8,59.3-12.8,85.7-15.7L449.2,197.9L449.2,197.9z M449.2,250v-9.8
			c-33,0-67.8,7-67.8,45.7c0,19.7,10.2,33,27.7,33c12.8,0,24.3-7.9,31.6-20.7C449.6,282.5,449.2,267.7,449.2,250z"/>
	</g>
</g>
<g id="Layer_2_1_">
</g>
<g id="Layer_3">
</g>
</svg>
