<?xml version="1.0" encoding="utf-8"?>
<!-- Generator: Adobe Illustrator 22.0.1, SVG Export Plug-In . SVG Version: 6.00 Build 0)  -->
<svg version="1.1" xmlns="http://www.w3.org/2000/svg" xmlns:xlink="http://www.w3.org/1999/xlink" x="0px" y="0px"
	 viewBox="0 0 856 540" style="enable-background:new 0 0 856 540;" xml:space="preserve">
<style type="text/css">
	.st0{fill-rule:evenodd;clip-rule:evenodd;fill:#FFFFFF;}
	.st1{fill-rule:evenodd;clip-rule:evenodd;fill:url(#SVGID_1_);}
	.st2{fill-rule:evenodd;clip-rule:evenodd;fill:url(#SVGID_2_);}
	.st3{fill:none;}
	.st4{fill:url(#SVGID_3_);}
	.st5{fill:#FFFFFF;}
	.st6{fill:url(#SVGID_4_);}
	.st7{fill:url(#SVGID_5_);}
	.st8{fill:url(#SVGID_6_);}
	.st9{fill-rule:evenodd;clip-rule:evenodd;}
	.st10{fill-rule:evenodd;clip-rule:evenodd;fill:url(#SVGID_7_);}
	.st11{fill-rule:evenodd;clip-rule:evenodd;fill:url(#SVGID_8_);}
	.st12{fill-rule:evenodd;clip-rule:evenodd;fill:url(#SVGID_9_);}
	.st13{fill-rule:evenodd;clip-rule:evenodd;fill:url(#SVGID_10_);}
	.st14{fill-rule:evenodd;clip-rule:evenodd;fill:url(#SVGID_11_);}
	.st15{fill-rule:evenodd;clip-rule:evenodd;fill:url(#SVGID_12_);}
	.st16{fill-rule:evenodd;clip-rule:evenodd;fill:url(#SVGID_13_);}
	.st17{fill-rule:evenodd;clip-rule:evenodd;fill:url(#SVGID_14_);}
	.st18{fill-rule:evenodd;clip-rule:evenodd;fill:url(#SVGID_15_);}
	.st19{fill-rule:evenodd;clip-rule:evenodd;fill:url(#SVGID_16_);}
	.st20{fill-rule:evenodd;clip-rule:evenodd;fill:url(#SVGID_17_);}
	.st21{fill:url(#SVGID_18_);}
	.st22{fill:url(#SVGID_19_);}
	.st23{fill:url(#SVGID_20_);}
	.st24{fill:url(#SVGID_21_);}
	.st25{fill:url(#SVGID_22_);}
	.st26{fill:url(#SVGID_23_);}
	.st27{fill:url(#SVGID_24_);}
	.st28{fill:url(#SVGID_25_);}
	.st29{fill:url(#SVGID_26_);}
	.st30{fill:url(#SVGID_27_);}
	.st31{fill:url(#SVGID_28_);}
	.st32{fill:url(#SVGID_29_);}
	.st33{fill:url(#SVGID_30_);}
	.st34{fill:url(#SVGID_31_);}
	.st35{fill:url(#SVGID_32_);}
	.st36{fill:url(#SVGID_33_);}
	.st37{fill:url(#SVGID_34_);}
	.st38{fill:url(#SVGID_35_);}
	.st39{fill:url(#SVGID_36_);}
	.st40{fill:url(#SVGID_37_);}
	.st41{opacity:0.2;enable-background:new    ;}
	.st42{fill:url(#SVGID_38_);}
	.st43{fill:url(#SVGID_39_);}
	.st44{fill:url(#SVGID_40_);}
	.st45{fill:url(#SVGID_41_);}
	.st46{fill:url(#SVGID_42_);}
	.st47{fill:url(#SVGID_43_);}
	.st48{opacity:0.12;enable-background:new    ;}
	.st49{fill:url(#SVGID_44_);}
	.st50{fill:url(#SVGID_45_);}
	.st51{fill:url(#SVGID_46_);}
	.st52{fill:url(#SVGID_47_);}
	.st53{fill:url(#SVGID_48_);}
	.st54{fill:url(#SVGID_49_);}
	.st55{fill:url(#SVGID_50_);}
	.st56{opacity:0.25;fill:#FFFFFF;enable-background:new    ;}
	.st57{fill:url(#SVGID_51_);}
	.st58{fill:url(#SVGID_52_);}
	.st59{fill:url(#SVGID_53_);}
	.st60{fill:url(#SVGID_54_);}
	.st61{fill:url(#SVGID_55_);}
	.st62{fill:url(#SVGID_56_);}
	.st63{fill:url(#SVGID_57_);}
	.st64{fill:url(#SVGID_58_);}
	.st65{fill:url(#Apple_1_);}
	.st66{fill:#010101;}
	.st67{fill:#F6EB16;}
	.st68{fill:url(#SVGID_59_);}
	.st69{fill:url(#SVGID_60_);}
	.st70{fill:url(#Nintendo_eShop_2_);}
	.st71{fill:url(#SVGID_61_);}
	.st72{fill:url(#SVGID_62_);}
	.st73{fill:url(#SVGID_63_);}
	.st74{fill:url(#SVGID_64_);}
	.st75{fill:url(#SVGID_65_);}
	.st76{fill:url(#SVGID_66_);}
	.st77{fill:url(#SVGID_67_);}
	.st78{fill:#253B80;}
	.st79{fill:url(#SVGID_68_);}
	.st80{fill:#030C62;}
	.st81{fill:url(#SVGID_69_);}
	.st82{fill:url(#SVGID_70_);}
	.st83{fill:url(#SVGID_71_);}
	.st84{fill:url(#SVGID_72_);}
	.st85{fill:url(#SVGID_73_);}
	.st86{fill:url(#SVGID_74_);}
	.st87{fill:url(#SVGID_75_);}
	.st88{fill:url(#SVGID_76_);}
	.st89{fill:url(#SVGID_77_);}
	.st90{fill:url(#SVGID_78_);}
	.st91{fill:url(#SVGID_79_);}
	.st92{fill:url(#SVGID_80_);}
	.st93{fill:url(#SVGID_81_);}
	.st94{fill-rule:evenodd;clip-rule:evenodd;fill:#86A0CE;}
	.st95{fill-rule:evenodd;clip-rule:evenodd;fill:#16315D;}
	.st96{fill-rule:evenodd;clip-rule:evenodd;fill:#E9EFFE;}
	.st97{fill:#EE018C;}
	.st98{fill:#E9EFFE;}
</style>
<g id="Layer_1">
	<linearGradient id="SVGID_1_" gradientUnits="userSpaceOnUse" x1="204.0866" y1="657.8294" x2="651.9135" y2="-117.8294">
		<stop  offset="2.399804e-03" style="stop-color:#FF3800"/>
		<stop  offset="1" style="stop-color:#FF8700"/>
	</linearGradient>
	<rect class="st1" width="856" height="540"/>
	<linearGradient id="SVGID_2_" gradientUnits="userSpaceOnUse" x1="428" y1="450" x2="428" y2="89.4694">
		<stop  offset="0.333" style="stop-color:#FFE7DA"/>
		<stop  offset="1" style="stop-color:#FFFFFF"/>
	</linearGradient>
	<path style="fill:url(#SVGID_2_);" d="M563.5,234.4c5.7-37.9-23.2-58.2-62.6-71.8l12.8-51.3l-31.2-7.8l-12.5,50
		c-8.2-2-16.6-4-25-5.9l12.5-50.3l-31.2-7.8l-12.8,51.3c-6.8-1.5-13.5-3.1-19.9-4.7l0-0.2l-43.1-10.8l-8.3,33.4
		c0,0,23.2,5.3,22.7,5.6c12.7,3.2,14.9,11.5,14.6,18.2l-14.6,58.5c0.9,0.2,2,0.5,3.2,1c-1-0.3-2.2-0.5-3.3-0.8l-20.4,81.9
		c-1.5,3.8-5.5,9.6-14.3,7.4c0.3,0.5-22.7-5.7-22.7-5.7l-15.5,35.8l40.7,10.1c7.6,1.9,15,3.9,22.3,5.7l-12.9,51.9L373,436l12.8-51.4
		c8.5,2.3,16.8,4.4,24.9,6.5l-12.8,51.1l31.2,7.8l12.9-51.8c53.3,10.1,93.3,6,110.2-42.2c13.6-38.8-0.7-61.2-28.7-75.8
		C544,275.6,559.4,262.1,563.5,234.4L563.5,234.4z M492.1,334.5c-9.7,38.8-75,17.8-96.1,12.6l17.2-68.8
		C434.3,283.6,502.2,294,492.1,334.5L492.1,334.5z M501.8,233.8c-8.8,35.3-63.2,17.4-80.8,13l15.6-62.4
		C454.1,188.8,510.9,197,501.8,233.8z"/>
</g>
<g id="Layer_2">
</g>
<g id="Layer_3">
</g>
</svg>
