<?xml version="1.0" encoding="utf-8"?>
<!-- Generator: Adobe Illustrator 22.1.0, SVG Export Plug-In . SVG Version: 6.00 Build 0)  -->
<svg version="1.1" id="Isolation_Mode" xmlns="http://www.w3.org/2000/svg" xmlns:xlink="http://www.w3.org/1999/xlink" x="0px"
	 y="0px" viewBox="0 0 23.1 25.7" style="enable-background:new 0 0 23.1 25.7;" xml:space="preserve">
<style type="text/css">
	.st0{fill:url(#SVGID_1_);}
	.st1{fill:url(#SVGID_2_);}
	.st2{fill:url(#SVGID_3_);}
	.st3{fill:url(#SVGID_4_);}
	.st4{opacity:0.2;enable-background:new    ;}
	.st5{opacity:0.12;enable-background:new    ;}
	.st6{opacity:0.25;fill:#FFFFFF;enable-background:new    ;}
</style>
<g>
	
		<linearGradient id="SVGID_1_" gradientUnits="userSpaceOnUse" x1="11.8271" y1="166.1498" x2="-4.9553" y2="149.3674" gradientTransform="matrix(1 0 0 -1 0 167.719)">
		<stop  offset="0" style="stop-color:#00A0FF"/>
		<stop  offset="6.574450e-03" style="stop-color:#00A1FF"/>
		<stop  offset="0.2601" style="stop-color:#00BEFF"/>
		<stop  offset="0.5122" style="stop-color:#00D2FF"/>
		<stop  offset="0.7604" style="stop-color:#00DFFF"/>
		<stop  offset="1" style="stop-color:#00E3FF"/>
	</linearGradient>
	<path class="st0" d="M0.5,0.4C0.2,0.7,0,1.2,0,1.8v22.1c0,0.6,0.2,1.1,0.5,1.4l0.1,0.1L12.9,13v-0.1v-0.1L0.5,0.4L0.5,0.4z"/>
	
		<linearGradient id="SVGID_2_" gradientUnits="userSpaceOnUse" x1="23.8618" y1="154.8581" x2="-0.3351" y2="154.8581" gradientTransform="matrix(1 0 0 -1 0 167.719)">
		<stop  offset="0" style="stop-color:#FFE000"/>
		<stop  offset="0.4087" style="stop-color:#FFBD00"/>
		<stop  offset="0.7754" style="stop-color:#FFA500"/>
		<stop  offset="1" style="stop-color:#FF9C00"/>
	</linearGradient>
	<path class="st1" d="M17.1,17.1L12.9,13v-0.1v-0.1l4.1-4.1l0.1,0.1l4.9,2.8c1.4,0.8,1.4,2.1,0,2.9L17.1,17.1L17.1,17.1z"/>
	
		<linearGradient id="SVGID_3_" gradientUnits="userSpaceOnUse" x1="14.8544" y1="152.5634" x2="-7.9039" y2="129.8051" gradientTransform="matrix(1 0 0 -1 0 167.719)">
		<stop  offset="0" style="stop-color:#FF3A44"/>
		<stop  offset="1" style="stop-color:#C31162"/>
	</linearGradient>
	<path class="st2" d="M17.1,17.1l-4.2-4.2L0.5,25.3c0.5,0.5,1.2,0.5,2.1,0.1L17.1,17.1"/>
	
		<linearGradient id="SVGID_4_" gradientUnits="userSpaceOnUse" x1="-2.6753" y1="174.6833" x2="7.4873" y2="164.5208" gradientTransform="matrix(1 0 0 -1 0 167.719)">
		<stop  offset="0" style="stop-color:#32A071"/>
		<stop  offset="6.850000e-02" style="stop-color:#2DA771"/>
		<stop  offset="0.4762" style="stop-color:#15CF74"/>
		<stop  offset="0.8009" style="stop-color:#06E775"/>
		<stop  offset="1" style="stop-color:#00F076"/>
	</linearGradient>
	<path class="st3" d="M17.1,8.6L2.5,0.3C1.7-0.2,0.9-0.1,0.5,0.4l12.5,12.5L17.1,8.6z"/>
	<g>
		<path class="st4" d="M17.1,17L2.5,25.2c-0.8,0.5-1.5,0.4-2,0l0,0l-0.1,0.1l0,0l0.1,0.1l0,0c0.5,0.4,1.2,0.5,2,0L17.1,17L17.1,17z"
			/>
		<path class="st5" d="M0.5,25.2C0.2,24.9,0,24.4,0,23.8v0.1c0,0.6,0.2,1.1,0.5,1.4V25.2L0.5,25.2z"/>
	</g>
	<path class="st5" d="M22,14.2l-5,2.8l0.1,0.1l4.9-2.8c0.7-0.4,1-0.9,1-1.4l0,0C23,13.3,22.7,13.8,22,14.2z"/>
	<path class="st6" d="M2.5,0.5L22,11.6c0.6,0.4,1,0.8,1,1.3l0,0c0-0.5-0.3-1-1-1.4L2.5,0.3C1.1-0.5,0,0.2,0,1.8v0.1
		C0,0.3,1.1-0.3,2.5,0.5z"/>
</g>
</svg>
