<?xml version="1.0" encoding="utf-8"?>
<!-- Generator: Adobe Illustrator 22.0.1, SVG Export Plug-In . SVG Version: 6.00 Build 0)  -->
<svg version="1.1" xmlns="http://www.w3.org/2000/svg" xmlns:xlink="http://www.w3.org/1999/xlink" x="0px" y="0px"
	 viewBox="0 0 856 540" style="enable-background:new 0 0 856 540;" xml:space="preserve">
<style type="text/css">
	.st0{fill-rule:evenodd;clip-rule:evenodd;fill:#FFFFFF;}
	.st1{fill-rule:evenodd;clip-rule:evenodd;fill:url(#SVGID_1_);}
	.st2{fill-rule:evenodd;clip-rule:evenodd;fill:url(#SVGID_2_);}
	.st3{fill:none;}
	.st4{fill:url(#SVGID_3_);}
	.st5{fill:#FFFFFF;}
	.st6{fill:url(#SVGID_4_);}
	.st7{fill:url(#SVGID_5_);}
	.st8{fill:url(#SVGID_6_);}
	.st9{fill-rule:evenodd;clip-rule:evenodd;}
	.st10{fill-rule:evenodd;clip-rule:evenodd;fill:url(#SVGID_7_);}
	.st11{fill-rule:evenodd;clip-rule:evenodd;fill:url(#SVGID_8_);}
	.st12{fill-rule:evenodd;clip-rule:evenodd;fill:url(#SVGID_9_);}
	.st13{fill-rule:evenodd;clip-rule:evenodd;fill:url(#SVGID_10_);}
	.st14{fill-rule:evenodd;clip-rule:evenodd;fill:url(#SVGID_11_);}
	.st15{fill-rule:evenodd;clip-rule:evenodd;fill:url(#SVGID_12_);}
	.st16{fill-rule:evenodd;clip-rule:evenodd;fill:url(#SVGID_13_);}
	.st17{fill-rule:evenodd;clip-rule:evenodd;fill:url(#SVGID_14_);}
	.st18{fill-rule:evenodd;clip-rule:evenodd;fill:url(#SVGID_15_);}
	.st19{fill-rule:evenodd;clip-rule:evenodd;fill:url(#SVGID_16_);}
	.st20{fill-rule:evenodd;clip-rule:evenodd;fill:url(#SVGID_17_);}
	.st21{fill:url(#SVGID_18_);}
	.st22{fill:url(#SVGID_19_);}
	.st23{fill:url(#SVGID_20_);}
	.st24{fill:url(#SVGID_21_);}
	.st25{fill:url(#SVGID_22_);}
	.st26{fill:url(#SVGID_23_);}
	.st27{fill:url(#SVGID_24_);}
	.st28{fill:url(#SVGID_25_);}
	.st29{fill:url(#SVGID_26_);}
	.st30{fill:url(#SVGID_27_);}
	.st31{fill:url(#SVGID_28_);}
	.st32{fill:url(#SVGID_29_);}
	.st33{fill:url(#SVGID_30_);}
	.st34{fill:url(#SVGID_31_);}
	.st35{fill:url(#SVGID_32_);}
	.st36{fill:url(#SVGID_33_);}
	.st37{fill:url(#SVGID_34_);}
	.st38{fill:url(#SVGID_35_);}
	.st39{fill:url(#SVGID_36_);}
	.st40{fill:url(#SVGID_37_);}
	.st41{opacity:0.2;enable-background:new    ;}
	.st42{fill:url(#SVGID_38_);}
	.st43{fill:url(#SVGID_39_);}
	.st44{fill:url(#SVGID_40_);}
	.st45{fill:url(#SVGID_41_);}
	.st46{fill:url(#SVGID_42_);}
	.st47{fill:url(#SVGID_43_);}
	.st48{opacity:0.12;enable-background:new    ;}
	.st49{fill:url(#SVGID_44_);}
	.st50{fill:url(#SVGID_45_);}
	.st51{fill:url(#SVGID_46_);}
	.st52{fill:url(#SVGID_47_);}
	.st53{fill:url(#SVGID_48_);}
	.st54{fill:url(#SVGID_49_);}
	.st55{fill:url(#SVGID_50_);}
	.st56{opacity:0.25;fill:#FFFFFF;enable-background:new    ;}
	.st57{fill:url(#SVGID_51_);}
	.st58{fill:url(#SVGID_52_);}
	.st59{fill:url(#SVGID_53_);}
	.st60{fill:url(#SVGID_54_);}
	.st61{fill:url(#SVGID_55_);}
	.st62{fill:url(#SVGID_56_);}
	.st63{fill:url(#SVGID_57_);}
	.st64{fill:url(#SVGID_58_);}
	.st65{fill:url(#Apple_1_);}
	.st66{fill:#010101;}
	.st67{fill:#F6EB16;}
	.st68{fill:url(#SVGID_59_);}
	.st69{fill:url(#SVGID_60_);}
	.st70{fill:url(#Nintendo_eShop_2_);}
	.st71{fill:url(#SVGID_61_);}
	.st72{fill:url(#SVGID_62_);}
	.st73{fill:url(#SVGID_63_);}
	.st74{fill:url(#SVGID_64_);}
	.st75{fill:url(#SVGID_65_);}
	.st76{fill:url(#SVGID_66_);}
	.st77{fill:url(#SVGID_67_);}
	.st78{fill:#253B80;}
	.st79{fill:url(#SVGID_68_);}
	.st80{fill:#030C62;}
	.st81{fill:url(#SVGID_69_);}
	.st82{fill:url(#SVGID_70_);}
	.st83{fill:url(#SVGID_71_);}
	.st84{fill:url(#SVGID_72_);}
	.st85{fill:url(#SVGID_73_);}
	.st86{fill:url(#SVGID_74_);}
	.st87{fill:url(#SVGID_75_);}
	.st88{fill:url(#SVGID_76_);}
	.st89{fill:url(#SVGID_77_);}
	.st90{fill:url(#SVGID_78_);}
	.st91{fill:url(#SVGID_79_);}
	.st92{fill:url(#SVGID_80_);}
	.st93{fill:url(#SVGID_81_);}
	.st94{fill-rule:evenodd;clip-rule:evenodd;fill:#86A0CE;}
	.st95{fill-rule:evenodd;clip-rule:evenodd;fill:#16315D;}
	.st96{fill-rule:evenodd;clip-rule:evenodd;fill:#E9EFFE;}
	.st97{fill:#EE018C;}
	.st98{fill:#E9EFFE;}
</style>
<g id="Layer_1">
	<rect class="st9" width="856" height="540"/>
	<g>
		
			<linearGradient id="SVGID_1_" gradientUnits="userSpaceOnUse" x1="447.2623" y1="1631.0027" x2="210.9112" y2="1394.6516" gradientTransform="matrix(1 0 0 -1 0 1742)">
			<stop  offset="0" style="stop-color:#00A0FF"/>
			<stop  offset="6.574450e-03" style="stop-color:#00A1FF"/>
			<stop  offset="0.2601" style="stop-color:#00BEFF"/>
			<stop  offset="0.5122" style="stop-color:#00D2FF"/>
			<stop  offset="0.7604" style="stop-color:#00DFFF"/>
			<stop  offset="1" style="stop-color:#00E3FF"/>
		</linearGradient>
		<path style="fill:url(#SVGID_1_);" d="M288.2,444.4l174.5-174.5L288.3,95.6c-4.7,4.3-7.7,11.2-7.7,20.7v307.4
			c0,8.7,2.4,15.4,6.5,19.8L288.2,444.4z"/>
		
			<linearGradient id="SVGID_2_" gradientUnits="userSpaceOnUse" x1="358.9978" y1="1719.2671" x2="122.6467" y2="1482.916" gradientTransform="matrix(1 0 0 -1 0 1742)">
			<stop  offset="0" style="stop-color:#00A0FF"/>
			<stop  offset="6.574450e-03" style="stop-color:#00A1FF"/>
			<stop  offset="0.2601" style="stop-color:#00BEFF"/>
			<stop  offset="0.5122" style="stop-color:#00D2FF"/>
			<stop  offset="0.7604" style="stop-color:#00DFFF"/>
			<stop  offset="1" style="stop-color:#00E3FF"/>
		</linearGradient>
		<path style="fill:url(#SVGID_2_);" d="M288.3,93.5l-0.1-0.1l-1,1c0.2-0.2,0.6-0.3,0.8-0.6C288.1,93.7,288.2,93.7,288.3,93.5z"/>
		
			<linearGradient id="SVGID_3_" gradientUnits="userSpaceOnUse" x1="358.9465" y1="1719.3185" x2="122.5954" y2="1482.9674" gradientTransform="matrix(1 0 0 -1 0 1742)">
			<stop  offset="0" style="stop-color:#00A0FF"/>
			<stop  offset="6.574450e-03" style="stop-color:#00A1FF"/>
			<stop  offset="0.2601" style="stop-color:#00BEFF"/>
			<stop  offset="0.5122" style="stop-color:#00D2FF"/>
			<stop  offset="0.7604" style="stop-color:#00DFFF"/>
			<stop  offset="1" style="stop-color:#00E3FF"/>
		</linearGradient>
		<path class="st4" d="M287.1,94.4c-0.1,0.1-0.1,0.2-0.2,0.2C287,94.6,287.1,94.5,287.1,94.4L287.1,94.4z"/>
		
			<linearGradient id="SVGID_4_" gradientUnits="userSpaceOnUse" x1="363.9525" y1="1714.3124" x2="127.6015" y2="1477.9613" gradientTransform="matrix(1 0 0 -1 0 1742)">
			<stop  offset="0" style="stop-color:#00A0FF"/>
			<stop  offset="6.574450e-03" style="stop-color:#00A1FF"/>
			<stop  offset="0.2601" style="stop-color:#00BEFF"/>
			<stop  offset="0.5122" style="stop-color:#00D2FF"/>
			<stop  offset="0.7604" style="stop-color:#00DFFF"/>
			<stop  offset="1" style="stop-color:#00E3FF"/>
		</linearGradient>
		<path class="st6" d="M280.6,114.2L280.6,114.2c0-2.5,0.3-4.9,0.7-7.1C280.9,109.3,280.6,111.7,280.6,114.2z"/>
		
			<linearGradient id="SVGID_5_" gradientUnits="userSpaceOnUse" x1="616.684" y1="1472.0494" x2="275.9126" y2="1472.0494" gradientTransform="matrix(1 0 0 -1 0 1742)">
			<stop  offset="0" style="stop-color:#FFE000"/>
			<stop  offset="0.4087" style="stop-color:#FFBD00"/>
			<stop  offset="0.7754" style="stop-color:#FFA500"/>
			<stop  offset="1" style="stop-color:#FF9C00"/>
		</linearGradient>
		<path class="st7" d="M591.1,251.7l-70.2-39.9l-58.2,58.2l58.2,58.2l70.2-39.9c8.9-5.1,13.9-11.6,14.8-18.3c0,0,0,0,0,0
			C605,263.3,600,256.7,591.1,251.7z"/>
		
			<linearGradient id="SVGID_6_" gradientUnits="userSpaceOnUse" x1="616.684" y1="1437.4219" x2="275.9126" y2="1437.4219" gradientTransform="matrix(1 0 0 -1 0 1742)">
			<stop  offset="0" style="stop-color:#FFE000"/>
			<stop  offset="0.4087" style="stop-color:#FFBD00"/>
			<stop  offset="0.7754" style="stop-color:#FFA500"/>
			<stop  offset="1" style="stop-color:#FF9C00"/>
		</linearGradient>
		<path class="st8" d="M591.1,290.3l-68.9,39.2l-1.3,0.8l0,0l1.3-0.7L591.1,290.3c5.8-3.3,9.6-7.2,12-11.3
			C600.7,283.1,596.8,287,591.1,290.3z"/>
		
			<linearGradient id="SVGID_7_" gradientUnits="userSpaceOnUse" x1="489.5461" y1="1440.0112" x2="169.0351" y2="1119.5002" gradientTransform="matrix(1 0 0 -1 0 1742)">
			<stop  offset="0" style="stop-color:#FF3A44"/>
			<stop  offset="1" style="stop-color:#C31162"/>
		</linearGradient>
		<path style="fill:url(#SVGID_7_);" d="M289.5,445.2c6.6,5,16.2,5.2,26.9-0.9l203.1-115.4L462.7,272L289.5,445.2z"/>
		
			<linearGradient id="SVGID_8_" gradientUnits="userSpaceOnUse" x1="534.9565" y1="1543.3083" x2="298.6054" y2="1306.9573" gradientTransform="matrix(1 0 0 -1 0 1742)">
			<stop  offset="0" style="stop-color:#00A0FF"/>
			<stop  offset="6.574450e-03" style="stop-color:#00A1FF"/>
			<stop  offset="0.2601" style="stop-color:#00BEFF"/>
			<stop  offset="0.5122" style="stop-color:#00D2FF"/>
			<stop  offset="0.7604" style="stop-color:#00DFFF"/>
			<stop  offset="1" style="stop-color:#00E3FF"/>
		</linearGradient>
		<path style="fill:url(#SVGID_8_);" d="M288.2,444.4c0.4,0.3,0.9,0.5,1.3,0.8L462.7,272v-2.1L288.2,444.4L288.2,444.4z"/>
		
			<linearGradient id="SVGID_9_" gradientUnits="userSpaceOnUse" x1="460.6027" y1="1468.9546" x2="140.0918" y2="1148.4436" gradientTransform="matrix(1 0 0 -1 0 1742)">
			<stop  offset="0" style="stop-color:#FF3A44"/>
			<stop  offset="1" style="stop-color:#C31162"/>
		</linearGradient>
		<path style="fill:url(#SVGID_9_);" d="M288.2,444.4c0.4,0.3,0.9,0.5,1.3,0.8L462.7,272v-2.1L288.2,444.4L288.2,444.4z"/>
		
			<linearGradient id="SVGID_10_" gradientUnits="userSpaceOnUse" x1="616.684" y1="1442.5853" x2="275.9126" y2="1442.5853" gradientTransform="matrix(1 0 0 -1 0 1742)">
			<stop  offset="0" style="stop-color:#FFE000"/>
			<stop  offset="0.4087" style="stop-color:#FFBD00"/>
			<stop  offset="0.7754" style="stop-color:#FFA500"/>
			<stop  offset="1" style="stop-color:#FF9C00"/>
		</linearGradient>
		<polygon style="fill:url(#SVGID_10_);" points="519.5,328.9 520.8,328.1 520.8,328.1 462.7,269.9 462.7,272 		"/>
		
			<linearGradient id="SVGID_11_" gradientUnits="userSpaceOnUse" x1="489.175" y1="1440.3823" x2="168.664" y2="1119.8713" gradientTransform="matrix(1 0 0 -1 0 1742)">
			<stop  offset="0" style="stop-color:#FF3A44"/>
			<stop  offset="1" style="stop-color:#C31162"/>
		</linearGradient>
		<polygon style="fill:url(#SVGID_11_);" points="519.5,328.9 520.8,328.1 520.8,328.1 462.7,269.9 462.7,272 		"/>
		
			<linearGradient id="SVGID_12_" gradientUnits="userSpaceOnUse" x1="250.4515" y1="1758.744" x2="393.5731" y2="1615.6224" gradientTransform="matrix(1 0 0 -1 0 1742)">
			<stop  offset="0" style="stop-color:#32A071"/>
			<stop  offset="6.850000e-02" style="stop-color:#2DA771"/>
			<stop  offset="0.4762" style="stop-color:#15CF74"/>
			<stop  offset="0.8009" style="stop-color:#06E775"/>
			<stop  offset="1" style="stop-color:#00F076"/>
		</linearGradient>
		<path style="fill:url(#SVGID_12_);" d="M522.1,210.5L522.1,210.5L316.4,93.6c-0.1-0.1-0.2-0.1-0.3-0.1c0.1,0,0.2,0.1,0.3,0.1
			L522.1,210.5z"/>
		
			<linearGradient id="SVGID_13_" gradientUnits="userSpaceOnUse" x1="242.6728" y1="1750.9652" x2="385.7943" y2="1607.8438" gradientTransform="matrix(1 0 0 -1 0 1742)">
			<stop  offset="0" style="stop-color:#32A071"/>
			<stop  offset="6.850000e-02" style="stop-color:#2DA771"/>
			<stop  offset="0.4762" style="stop-color:#15CF74"/>
			<stop  offset="0.8009" style="stop-color:#06E775"/>
			<stop  offset="1" style="stop-color:#00F076"/>
		</linearGradient>
		<path style="fill:url(#SVGID_13_);" d="M519.5,211L316.4,95.6c-10.8-6.1-20.4-5.9-27-0.9l173.2,173.2L519.5,211z"/>
		
			<linearGradient id="SVGID_14_" gradientUnits="userSpaceOnUse" x1="358.981" y1="1719.2838" x2="122.63" y2="1482.9327" gradientTransform="matrix(1 0 0 -1 0 1742)">
			<stop  offset="0" style="stop-color:#00A0FF"/>
			<stop  offset="6.574450e-03" style="stop-color:#00A1FF"/>
			<stop  offset="0.2601" style="stop-color:#00BEFF"/>
			<stop  offset="0.5122" style="stop-color:#00D2FF"/>
			<stop  offset="0.7604" style="stop-color:#00DFFF"/>
			<stop  offset="1" style="stop-color:#00E3FF"/>
		</linearGradient>
		<path style="fill:url(#SVGID_14_);" d="M288,93.9c-0.2,0.2-0.6,0.3-0.8,0.6l0,0C287.4,94.2,287.7,94.1,288,93.9z"/>
		
			<linearGradient id="SVGID_15_" gradientUnits="userSpaceOnUse" x1="213.5612" y1="1721.8536" x2="356.6827" y2="1578.7321" gradientTransform="matrix(1 0 0 -1 0 1742)">
			<stop  offset="0" style="stop-color:#32A071"/>
			<stop  offset="6.850000e-02" style="stop-color:#2DA771"/>
			<stop  offset="0.4762" style="stop-color:#15CF74"/>
			<stop  offset="0.8009" style="stop-color:#06E775"/>
			<stop  offset="1" style="stop-color:#00F076"/>
		</linearGradient>
		<path style="fill:url(#SVGID_15_);" d="M288,93.9c-0.2,0.2-0.6,0.3-0.8,0.6l0,0C287.4,94.2,287.7,94.1,288,93.9z"/>
		
			<linearGradient id="SVGID_16_" gradientUnits="userSpaceOnUse" x1="447.2722" y1="1630.9928" x2="210.9211" y2="1394.6416" gradientTransform="matrix(1 0 0 -1 0 1742)">
			<stop  offset="0" style="stop-color:#00A0FF"/>
			<stop  offset="6.574450e-03" style="stop-color:#00A1FF"/>
			<stop  offset="0.2601" style="stop-color:#00BEFF"/>
			<stop  offset="0.5122" style="stop-color:#00D2FF"/>
			<stop  offset="0.7604" style="stop-color:#00DFFF"/>
			<stop  offset="1" style="stop-color:#00E3FF"/>
		</linearGradient>
		<path style="fill:url(#SVGID_16_);" d="M289.5,94.7c-0.4,0.3-0.8,0.6-1.1,0.9l174.3,174.3v-2.1L289.5,94.7z"/>
		
			<linearGradient id="SVGID_17_" gradientUnits="userSpaceOnUse" x1="213.7296" y1="1722.0221" x2="356.8512" y2="1578.9005" gradientTransform="matrix(1 0 0 -1 0 1742)">
			<stop  offset="0" style="stop-color:#32A071"/>
			<stop  offset="6.850000e-02" style="stop-color:#2DA771"/>
			<stop  offset="0.4762" style="stop-color:#15CF74"/>
			<stop  offset="0.8009" style="stop-color:#06E775"/>
			<stop  offset="1" style="stop-color:#00F076"/>
		</linearGradient>
		<path style="fill:url(#SVGID_17_);" d="M289.5,94.7c-0.4,0.3-0.8,0.6-1.1,0.9l174.3,174.3v-2.1L289.5,94.7z"/>
		
			<linearGradient id="SVGID_18_" gradientUnits="userSpaceOnUse" x1="616.684" y1="1501.5092" x2="275.9126" y2="1501.5092" gradientTransform="matrix(1 0 0 -1 0 1742)">
			<stop  offset="0" style="stop-color:#FFE000"/>
			<stop  offset="0.4087" style="stop-color:#FFBD00"/>
			<stop  offset="0.7754" style="stop-color:#FFA500"/>
			<stop  offset="1" style="stop-color:#FF9C00"/>
		</linearGradient>
		<polygon class="st21" points="462.7,267.9 462.7,269.9 520.8,211.8 519.5,211 		"/>
		
			<linearGradient id="SVGID_19_" gradientUnits="userSpaceOnUse" x1="242.2993" y1="1750.5918" x2="385.4208" y2="1607.4702" gradientTransform="matrix(1 0 0 -1 0 1742)">
			<stop  offset="0" style="stop-color:#32A071"/>
			<stop  offset="6.850000e-02" style="stop-color:#2DA771"/>
			<stop  offset="0.4762" style="stop-color:#15CF74"/>
			<stop  offset="0.8009" style="stop-color:#06E775"/>
			<stop  offset="1" style="stop-color:#00F076"/>
		</linearGradient>
		<polygon class="st22" points="462.7,267.9 462.7,269.9 520.8,211.8 519.5,211 		"/>
		<path class="st41" d="M288.2,446.5l-1-1l0,0L288.2,446.5L288.2,446.5c0.8,0.7,1.7,1,2.6,1.6c-0.8-0.5-1.7-1.1-2.4-1.7L288.2,446.5
			z"/>
		
			<linearGradient id="SVGID_20_" gradientUnits="userSpaceOnUse" x1="534.9578" y1="1543.3071" x2="298.6067" y2="1306.9561" gradientTransform="matrix(1 0 0 -1 0 1742)">
			<stop  offset="0" style="stop-color:#00A0FF"/>
			<stop  offset="6.574450e-03" style="stop-color:#00A1FF"/>
			<stop  offset="0.2601" style="stop-color:#00BEFF"/>
			<stop  offset="0.5122" style="stop-color:#00D2FF"/>
			<stop  offset="0.7604" style="stop-color:#00DFFF"/>
			<stop  offset="1" style="stop-color:#00E3FF"/>
		</linearGradient>
		<path class="st23" d="M287.2,445.5l1,1l0.2-0.2C288,446,287.5,445.8,287.2,445.5L287.2,445.5z"/>
		<path class="st41" d="M287.2,445.5l1,1l0.2-0.2C288,446,287.5,445.8,287.2,445.5L287.2,445.5z"/>
		
			<linearGradient id="SVGID_21_" gradientUnits="userSpaceOnUse" x1="490.2013" y1="1439.356" x2="169.6903" y2="1118.8451" gradientTransform="matrix(1 0 0 -1 0 1742)">
			<stop  offset="0" style="stop-color:#FF3A44"/>
			<stop  offset="1" style="stop-color:#C31162"/>
		</linearGradient>
		<path class="st24" d="M316.4,444.3c-10.8,6.1-20.4,5.9-26.9,0.9l-1.1,1.1c0.8,0.7,1.6,1.2,2.4,1.7c0.8,0.5,1.6,1.2,2.5,1.5
			c1.2,0.5,2.6,0.7,4,0.9c0.9,0.2,1.8,0.5,2.8,0.5c1.6,0,3.4-0.3,5.2-0.6c0.9-0.2,1.7-0.1,2.6-0.4c2.7-0.8,5.6-2,8.5-3.6
			l204.4-116.1l-1.3-1.3L316.4,444.3z"/>
		<path class="st41" d="M316.4,444.3c-10.8,6.1-20.4,5.9-26.9,0.9l-1.1,1.1c0.8,0.7,1.6,1.2,2.4,1.7c0.8,0.5,1.6,1.2,2.5,1.5
			c1.2,0.5,2.6,0.7,4,0.9c0.9,0.2,1.8,0.5,2.8,0.5c1.6,0,3.4-0.3,5.2-0.6c0.9-0.2,1.7-0.1,2.6-0.4c2.7-0.8,5.6-2,8.5-3.6
			l204.4-116.1l-1.3-1.3L316.4,444.3z"/>
		
			<linearGradient id="SVGID_22_" gradientUnits="userSpaceOnUse" x1="534.9578" y1="1543.3071" x2="298.6067" y2="1306.9561" gradientTransform="matrix(1 0 0 -1 0 1742)">
			<stop  offset="0" style="stop-color:#00A0FF"/>
			<stop  offset="6.574450e-03" style="stop-color:#00A1FF"/>
			<stop  offset="0.2601" style="stop-color:#00BEFF"/>
			<stop  offset="0.5122" style="stop-color:#00D2FF"/>
			<stop  offset="0.7604" style="stop-color:#00DFFF"/>
			<stop  offset="1" style="stop-color:#00E3FF"/>
		</linearGradient>
		<path class="st25" d="M287.2,445.5c0.3,0.4,0.8,0.5,1.2,0.9l1.1-1.1c-0.4-0.3-0.9-0.4-1.3-0.8L287.2,445.5z"/>
		
			<linearGradient id="SVGID_23_" gradientUnits="userSpaceOnUse" x1="460.604" y1="1468.9532" x2="140.093" y2="1148.4424" gradientTransform="matrix(1 0 0 -1 0 1742)">
			<stop  offset="0" style="stop-color:#FF3A44"/>
			<stop  offset="1" style="stop-color:#C31162"/>
		</linearGradient>
		<path class="st26" d="M287.2,445.5c0.3,0.4,0.8,0.5,1.2,0.9l1.1-1.1c-0.4-0.3-0.9-0.4-1.3-0.8L287.2,445.5z"/>
		<path class="st41" d="M287.2,445.5c0.3,0.4,0.8,0.5,1.2,0.9l1.1-1.1c-0.4-0.3-0.9-0.4-1.3-0.8L287.2,445.5z"/>
		
			<linearGradient id="SVGID_24_" gradientUnits="userSpaceOnUse" x1="616.684" y1="1412.8416" x2="275.9126" y2="1412.8416" gradientTransform="matrix(1 0 0 -1 0 1742)">
			<stop  offset="0" style="stop-color:#FFE000"/>
			<stop  offset="0.4087" style="stop-color:#FFBD00"/>
			<stop  offset="0.7754" style="stop-color:#FFA500"/>
			<stop  offset="1" style="stop-color:#FF9C00"/>
		</linearGradient>
		<polygon class="st27" points="520.8,328.1 519.5,328.9 520.8,330.2 522.2,329.4 		"/>
		
			<linearGradient id="SVGID_25_" gradientUnits="userSpaceOnUse" x1="518.774" y1="1410.7833" x2="198.263" y2="1090.2723" gradientTransform="matrix(1 0 0 -1 0 1742)">
			<stop  offset="0" style="stop-color:#FF3A44"/>
			<stop  offset="1" style="stop-color:#C31162"/>
		</linearGradient>
		<polygon class="st28" points="520.8,328.1 519.5,328.9 520.8,330.2 522.2,329.4 		"/>
		<polygon class="st41" points="520.8,328.1 519.5,328.9 520.8,330.2 522.2,329.4 		"/>
		<path class="st48" d="M287.1,445.5c-4.1-4.3-6.5-11.1-6.5-19.8v0C280.6,434.4,283.1,441.1,287.1,445.5L287.1,445.5L287.1,445.5z"
			/>
		
			<linearGradient id="SVGID_26_" gradientUnits="userSpaceOnUse" x1="527.3531" y1="1550.9117" x2="291.002" y2="1314.5607" gradientTransform="matrix(1 0 0 -1 0 1742)">
			<stop  offset="0" style="stop-color:#00A0FF"/>
			<stop  offset="6.574450e-03" style="stop-color:#00A1FF"/>
			<stop  offset="0.2601" style="stop-color:#00BEFF"/>
			<stop  offset="0.5122" style="stop-color:#00D2FF"/>
			<stop  offset="0.7604" style="stop-color:#00DFFF"/>
			<stop  offset="1" style="stop-color:#00E3FF"/>
		</linearGradient>
		<path class="st29" d="M288.2,444.4l-1-1c-4.1-4.3-6.5-11.1-6.5-19.8v2.1c0,8.7,2.4,15.5,6.5,19.8L288.2,444.4z"/>
		<path class="st48" d="M288.2,444.4l-1-1c-4.1-4.3-6.5-11.1-6.5-19.8v2.1c0,8.7,2.4,15.5,6.5,19.8L288.2,444.4z"/>
		
			<linearGradient id="SVGID_27_" gradientUnits="userSpaceOnUse" x1="290.5909" y1="1299.9686" x2="283.7142" y2="1293.092" gradientTransform="matrix(1 0 0 -1 0 1742)">
			<stop  offset="0" style="stop-color:#00A0FF"/>
			<stop  offset="6.574450e-03" style="stop-color:#00A1FF"/>
			<stop  offset="0.2601" style="stop-color:#00BEFF"/>
			<stop  offset="0.5122" style="stop-color:#00D2FF"/>
			<stop  offset="0.7604" style="stop-color:#00DFFF"/>
			<stop  offset="1" style="stop-color:#00E3FF"/>
		</linearGradient>
		<polygon class="st30" points="287.1,445.5 287.2,445.5 287.2,445.5 		"/>
		<polygon class="st48" points="287.1,445.5 287.2,445.5 287.2,445.5 		"/>
		
			<linearGradient id="SVGID_28_" gradientUnits="userSpaceOnUse" x1="534.4435" y1="1543.8214" x2="298.0925" y2="1307.4702" gradientTransform="matrix(1 0 0 -1 0 1742)">
			<stop  offset="0" style="stop-color:#00A0FF"/>
			<stop  offset="6.574450e-03" style="stop-color:#00A1FF"/>
			<stop  offset="0.2601" style="stop-color:#00BEFF"/>
			<stop  offset="0.5122" style="stop-color:#00D2FF"/>
			<stop  offset="0.7604" style="stop-color:#00DFFF"/>
			<stop  offset="1" style="stop-color:#00E3FF"/>
		</linearGradient>
		<polygon class="st31" points="288.2,444.4 288.2,444.4 287.1,445.5 287.2,445.5 		"/>
		
			<linearGradient id="SVGID_29_" gradientUnits="userSpaceOnUse" x1="460.0898" y1="1469.4675" x2="139.5788" y2="1148.9565" gradientTransform="matrix(1 0 0 -1 0 1742)">
			<stop  offset="0" style="stop-color:#FF3A44"/>
			<stop  offset="1" style="stop-color:#C31162"/>
		</linearGradient>
		<polygon class="st32" points="288.2,444.4 288.2,444.4 287.1,445.5 287.2,445.5 		"/>
		<polygon class="st48" points="288.2,444.4 288.2,444.4 287.1,445.5 287.2,445.5 		"/>
		<path class="st48" d="M605.8,270C605.8,270,605.8,270,605.8,270c0,3.1-1.1,6.1-2.7,9C604.8,276,605.8,273,605.8,270z"/>
		
			<linearGradient id="SVGID_30_" gradientUnits="userSpaceOnUse" x1="616.684" y1="1442.2953" x2="275.9126" y2="1442.2953" gradientTransform="matrix(1 0 0 -1 0 1742)">
			<stop  offset="0" style="stop-color:#FFE000"/>
			<stop  offset="0.4087" style="stop-color:#FFBD00"/>
			<stop  offset="0.7754" style="stop-color:#FFA500"/>
			<stop  offset="1" style="stop-color:#FF9C00"/>
		</linearGradient>
		<path class="st33" d="M591.1,288.2l-70.2,39.9l1.3,1.3l68.9-39.2c5.8-3.3,9.6-7.2,12-11.3c1.7-2.9,2.7-5.9,2.7-9
			C605,276.6,600,283.2,591.1,288.2z"/>
		<path class="st48" d="M591.1,288.2l-70.2,39.9l1.3,1.3l68.9-39.2c5.8-3.3,9.6-7.2,12-11.3c1.7-2.9,2.7-5.9,2.7-9
			C605,276.6,600,283.2,591.1,288.2z"/>
		
			<linearGradient id="SVGID_31_" gradientUnits="userSpaceOnUse" x1="616.684" y1="1413.2189" x2="275.9126" y2="1413.2189" gradientTransform="matrix(1 0 0 -1 0 1742)">
			<stop  offset="0" style="stop-color:#FFE000"/>
			<stop  offset="0.4087" style="stop-color:#FFBD00"/>
			<stop  offset="0.7754" style="stop-color:#FFA500"/>
			<stop  offset="1" style="stop-color:#FF9C00"/>
		</linearGradient>
		<polygon class="st34" points="522.2,329.4 520.8,328.1 520.8,328.1 		"/>
		
			<linearGradient id="SVGID_32_" gradientUnits="userSpaceOnUse" x1="518.9169" y1="1410.6404" x2="512.0403" y2="1403.7638" gradientTransform="matrix(1 0 0 -1 0 1742)">
			<stop  offset="0" style="stop-color:#FF3A44"/>
			<stop  offset="1" style="stop-color:#C31162"/>
		</linearGradient>
		<polygon class="st35" points="522.2,329.4 520.8,328.1 520.8,328.1 		"/>
		<polygon class="st48" points="522.2,329.4 520.8,328.1 520.8,328.1 		"/>
		<path class="st56" d="M591.1,249.6l-68.9-39.2l0,0l0,0L591.1,249.6c9.8,5.6,14.7,13,14.8,20.3c0,0,0,0,0,0
			C605.8,262.6,600.9,255.2,591.1,249.6z"/>
		<path class="st56" d="M292.2,90.9c-1.4,0.7-2.6,1.6-3.8,2.7l0,0C289.5,92.5,290.8,91.6,292.2,90.9z"/>
		
			<linearGradient id="SVGID_33_" gradientUnits="userSpaceOnUse" x1="359.068" y1="1719.1969" x2="122.7169" y2="1482.8458" gradientTransform="matrix(1 0 0 -1 0 1742)">
			<stop  offset="0" style="stop-color:#00A0FF"/>
			<stop  offset="6.574450e-03" style="stop-color:#00A1FF"/>
			<stop  offset="0.2601" style="stop-color:#00BEFF"/>
			<stop  offset="0.5122" style="stop-color:#00D2FF"/>
			<stop  offset="0.7604" style="stop-color:#00DFFF"/>
			<stop  offset="1" style="stop-color:#00E3FF"/>
		</linearGradient>
		<path class="st36" d="M288.4,93.6L288.4,93.6c-0.1,0.1-0.3,0.2-0.4,0.3C288.1,93.7,288.2,93.7,288.4,93.6z"/>
		<path class="st56" d="M288.4,93.6L288.4,93.6c-0.1,0.1-0.3,0.2-0.4,0.3C288.1,93.7,288.2,93.7,288.4,93.6z"/>
		
			<linearGradient id="SVGID_34_" gradientUnits="userSpaceOnUse" x1="362.7697" y1="1715.4952" x2="126.4186" y2="1479.1442" gradientTransform="matrix(1 0 0 -1 0 1742)">
			<stop  offset="0" style="stop-color:#00A0FF"/>
			<stop  offset="6.574450e-03" style="stop-color:#00A1FF"/>
			<stop  offset="0.2601" style="stop-color:#00BEFF"/>
			<stop  offset="0.5122" style="stop-color:#00D2FF"/>
			<stop  offset="0.7604" style="stop-color:#00DFFF"/>
			<stop  offset="1" style="stop-color:#00E3FF"/>
		</linearGradient>
		<path class="st37" d="M287.2,94.5c-0.1,0.1-0.1,0.1-0.2,0.2c-0.3,0.3-0.5,0.8-0.8,1.1c-0.8,1-1.6,2.2-2.2,3.4
			c-0.3,0.6-0.6,1.2-0.8,1.8c-0.5,1.3-1,2.7-1.3,4.1c-0.2,0.7-0.3,1.3-0.5,2c-0.4,2.2-0.7,4.5-0.7,7.1v2.1c0-9.5,3-16.4,7.7-20.7
			L287.2,94.5z"/>
		<path class="st56" d="M287.2,94.5c-0.1,0.1-0.1,0.1-0.2,0.2c-0.3,0.3-0.5,0.8-0.8,1.1c-0.8,1-1.6,2.2-2.2,3.4
			c-0.3,0.6-0.6,1.2-0.8,1.8c-0.5,1.3-1,2.7-1.3,4.1c-0.2,0.7-0.3,1.3-0.5,2c-0.4,2.2-0.7,4.5-0.7,7.1v2.1c0-9.5,3-16.4,7.7-20.7
			L287.2,94.5z"/>
		
			<linearGradient id="SVGID_35_" gradientUnits="userSpaceOnUse" x1="616.684" y1="1501.8024" x2="275.9126" y2="1501.8024" gradientTransform="matrix(1 0 0 -1 0 1742)">
			<stop  offset="0" style="stop-color:#FFE000"/>
			<stop  offset="0.4087" style="stop-color:#FFBD00"/>
			<stop  offset="0.7754" style="stop-color:#FFA500"/>
			<stop  offset="1" style="stop-color:#FF9C00"/>
		</linearGradient>
		<path class="st38" d="M591.1,249.6l-68.9-39.2l0,0l-1.3,1.3l70.2,39.9c8.9,5.1,13.9,11.6,14.8,18.3
			C605.8,262.6,600.9,255.2,591.1,249.6z"/>
		<path class="st56" d="M591.1,249.6l-68.9-39.2l0,0l-1.3,1.3l70.2,39.9c8.9,5.1,13.9,11.6,14.8,18.3
			C605.8,262.6,600.9,255.2,591.1,249.6z"/>
		
			<linearGradient id="SVGID_36_" gradientUnits="userSpaceOnUse" x1="243.4711" y1="1751.7635" x2="386.5927" y2="1608.6421" gradientTransform="matrix(1 0 0 -1 0 1742)">
			<stop  offset="0" style="stop-color:#32A071"/>
			<stop  offset="6.850000e-02" style="stop-color:#2DA771"/>
			<stop  offset="0.4762" style="stop-color:#15CF74"/>
			<stop  offset="0.8009" style="stop-color:#06E775"/>
			<stop  offset="1" style="stop-color:#00F076"/>
		</linearGradient>
		<path class="st39" d="M289.5,94.7c6.6-5,16.2-5.2,27,0.9L519.5,211l1.3-1.3l1.3,0.7l0,0L316.4,93.6c-0.1-0.1-0.2-0.1-0.3-0.1
			c-2.7-1.5-5.3-2.6-7.8-3.3c-0.8-0.3-1.6-0.3-2.5-0.5c-1.7-0.4-3.4-0.6-5-0.6c-0.8,0-1.6,0.1-2.4,0.1c-1.5,0.2-3,0.5-4.3,1
			c-0.7,0.2-1.3,0.4-2,0.7c-1.4,0.7-2.6,1.7-3.8,2.7L289.5,94.7z"/>
		<path class="st56" d="M316.4,93.6c-0.1-0.1-0.2-0.1-0.3-0.1c-2.7-1.5-5.3-2.6-7.8-3.3c-0.8-0.3-1.6-0.3-2.5-0.5
			c-1.7-0.4-3.4-0.6-5-0.6c-0.8,0-1.6,0.1-2.4,0.1c-1.5,0.2-3,0.5-4.3,1c-0.7,0.2-1.3,0.4-2,0.7c-1.4,0.7-2.6,1.7-3.8,2.7l1.1,1.1
			c6.6-5,16.2-5.2,27,0.9L519.5,211l1.3-1.3l1.3,0.7l0,0L316.4,93.6z"/>
		
			<linearGradient id="SVGID_37_" gradientUnits="userSpaceOnUse" x1="359.5874" y1="1718.6775" x2="123.2363" y2="1482.3264" gradientTransform="matrix(1 0 0 -1 0 1742)">
			<stop  offset="0" style="stop-color:#00A0FF"/>
			<stop  offset="6.574450e-03" style="stop-color:#00A1FF"/>
			<stop  offset="0.2601" style="stop-color:#00BEFF"/>
			<stop  offset="0.5122" style="stop-color:#00D2FF"/>
			<stop  offset="0.7604" style="stop-color:#00DFFF"/>
			<stop  offset="1" style="stop-color:#00E3FF"/>
		</linearGradient>
		<path class="st40" d="M288.4,93.6c-0.1,0.1-0.3,0.2-0.4,0.3c-0.2,0.2-0.5,0.4-0.8,0.6l1.1,1.1c0.4-0.3,0.7-0.6,1.1-0.9L288.4,93.6
			z"/>
		
			<linearGradient id="SVGID_38_" gradientUnits="userSpaceOnUse" x1="213.7296" y1="1722.0221" x2="356.8512" y2="1578.9005" gradientTransform="matrix(1 0 0 -1 0 1742)">
			<stop  offset="0" style="stop-color:#32A071"/>
			<stop  offset="6.850000e-02" style="stop-color:#2DA771"/>
			<stop  offset="0.4762" style="stop-color:#15CF74"/>
			<stop  offset="0.8009" style="stop-color:#06E775"/>
			<stop  offset="1" style="stop-color:#00F076"/>
		</linearGradient>
		<path class="st42" d="M288.4,93.6c-0.1,0.1-0.3,0.2-0.4,0.3c-0.2,0.2-0.5,0.4-0.8,0.6l1.1,1.1c0.4-0.3,0.7-0.6,1.1-0.9L288.4,93.6
			z"/>
		<path class="st56" d="M288.4,93.6c-0.1,0.1-0.3,0.2-0.4,0.3c-0.2,0.2-0.5,0.4-0.8,0.6l1.1,1.1c0.4-0.3,0.7-0.6,1.1-0.9L288.4,93.6
			z"/>
		
			<linearGradient id="SVGID_39_" gradientUnits="userSpaceOnUse" x1="616.684" y1="1531.2513" x2="275.9126" y2="1531.2513" gradientTransform="matrix(1 0 0 -1 0 1742)">
			<stop  offset="0" style="stop-color:#FFE000"/>
			<stop  offset="0.4087" style="stop-color:#FFBD00"/>
			<stop  offset="0.7754" style="stop-color:#FFA500"/>
			<stop  offset="1" style="stop-color:#FF9C00"/>
		</linearGradient>
		<polygon class="st43" points="519.5,211 520.8,211.8 522.1,210.5 520.8,209.7 		"/>
		
			<linearGradient id="SVGID_40_" gradientUnits="userSpaceOnUse" x1="271.8977" y1="1780.1902" x2="415.0192" y2="1637.0686" gradientTransform="matrix(1 0 0 -1 0 1742)">
			<stop  offset="0" style="stop-color:#32A071"/>
			<stop  offset="6.850000e-02" style="stop-color:#2DA771"/>
			<stop  offset="0.4762" style="stop-color:#15CF74"/>
			<stop  offset="0.8009" style="stop-color:#06E775"/>
			<stop  offset="1" style="stop-color:#00F076"/>
		</linearGradient>
		<polygon class="st44" points="519.5,211 520.8,211.8 522.1,210.5 520.8,209.7 		"/>
		<polygon class="st56" points="519.5,211 520.8,211.8 522.1,210.5 520.8,209.7 		"/>
	</g>
</g>
<g id="Layer_2">
</g>
<g id="Layer_3">
</g>
</svg>
