<?xml version="1.0" encoding="utf-8"?>
<!-- Generator: Adobe Illustrator 22.0.1, SVG Export Plug-In . SVG Version: 6.00 Build 0)  -->
<svg version="1.1" xmlns="http://www.w3.org/2000/svg" xmlns:xlink="http://www.w3.org/1999/xlink" x="0px" y="0px"
	 viewBox="0 0 856 540" style="enable-background:new 0 0 856 540;" xml:space="preserve">
<style type="text/css">
	.st0{fill-rule:evenodd;clip-rule:evenodd;fill:#FFFFFF;}
	.st1{fill-rule:evenodd;clip-rule:evenodd;fill:url(#SVGID_1_);}
	.st2{fill-rule:evenodd;clip-rule:evenodd;fill:url(#SVGID_2_);}
	.st3{fill:none;}
	.st4{fill:url(#SVGID_3_);}
	.st5{fill:#FFFFFF;}
	.st6{fill:url(#SVGID_4_);}
	.st7{fill:url(#SVGID_5_);}
	.st8{fill:url(#SVGID_6_);}
	.st9{fill-rule:evenodd;clip-rule:evenodd;}
	.st10{fill-rule:evenodd;clip-rule:evenodd;fill:url(#SVGID_7_);}
	.st11{fill-rule:evenodd;clip-rule:evenodd;fill:url(#SVGID_8_);}
	.st12{fill-rule:evenodd;clip-rule:evenodd;fill:url(#SVGID_9_);}
	.st13{fill-rule:evenodd;clip-rule:evenodd;fill:url(#SVGID_10_);}
	.st14{fill-rule:evenodd;clip-rule:evenodd;fill:url(#SVGID_11_);}
	.st15{fill-rule:evenodd;clip-rule:evenodd;fill:url(#SVGID_12_);}
	.st16{fill-rule:evenodd;clip-rule:evenodd;fill:url(#SVGID_13_);}
	.st17{fill-rule:evenodd;clip-rule:evenodd;fill:url(#SVGID_14_);}
	.st18{fill-rule:evenodd;clip-rule:evenodd;fill:url(#SVGID_15_);}
	.st19{fill-rule:evenodd;clip-rule:evenodd;fill:url(#SVGID_16_);}
	.st20{fill-rule:evenodd;clip-rule:evenodd;fill:url(#SVGID_17_);}
	.st21{fill:url(#SVGID_18_);}
	.st22{fill:url(#SVGID_19_);}
	.st23{fill:url(#SVGID_20_);}
	.st24{fill:url(#SVGID_21_);}
	.st25{fill:url(#SVGID_22_);}
	.st26{fill:url(#SVGID_23_);}
	.st27{fill:url(#SVGID_24_);}
	.st28{fill:url(#SVGID_25_);}
	.st29{fill:url(#SVGID_26_);}
	.st30{fill:url(#SVGID_27_);}
	.st31{fill:url(#SVGID_28_);}
	.st32{fill:url(#SVGID_29_);}
	.st33{fill:url(#SVGID_30_);}
	.st34{fill:url(#SVGID_31_);}
	.st35{fill:url(#SVGID_32_);}
	.st36{fill:url(#SVGID_33_);}
	.st37{fill:url(#SVGID_34_);}
	.st38{fill:url(#SVGID_35_);}
	.st39{fill:url(#SVGID_36_);}
	.st40{fill:url(#SVGID_37_);}
	.st41{opacity:0.2;enable-background:new    ;}
	.st42{fill:url(#SVGID_38_);}
	.st43{fill:url(#SVGID_39_);}
	.st44{fill:url(#SVGID_40_);}
	.st45{fill:url(#SVGID_41_);}
	.st46{fill:url(#SVGID_42_);}
	.st47{fill:url(#SVGID_43_);}
	.st48{opacity:0.12;enable-background:new    ;}
	.st49{fill:url(#SVGID_44_);}
	.st50{fill:url(#SVGID_45_);}
	.st51{fill:url(#SVGID_46_);}
	.st52{fill:url(#SVGID_47_);}
	.st53{fill:url(#SVGID_48_);}
	.st54{fill:url(#SVGID_49_);}
	.st55{fill:url(#SVGID_50_);}
	.st56{opacity:0.25;fill:#FFFFFF;enable-background:new    ;}
	.st57{fill:url(#SVGID_51_);}
	.st58{fill:url(#SVGID_52_);}
	.st59{fill:url(#SVGID_53_);}
	.st60{fill:url(#SVGID_54_);}
	.st61{fill:url(#SVGID_55_);}
	.st62{fill:url(#SVGID_56_);}
	.st63{fill:url(#SVGID_57_);}
	.st64{fill:url(#SVGID_58_);}
	.st65{fill:url(#Apple_1_);}
	.st66{fill:#010101;}
	.st67{fill:#F6EB16;}
	.st68{fill:url(#SVGID_59_);}
	.st69{fill:url(#SVGID_60_);}
	.st70{fill:url(#Nintendo_eShop_2_);}
	.st71{fill:url(#SVGID_61_);}
	.st72{fill:url(#SVGID_62_);}
	.st73{fill:url(#SVGID_63_);}
	.st74{fill:url(#SVGID_64_);}
	.st75{fill:url(#SVGID_65_);}
	.st76{fill:url(#SVGID_66_);}
	.st77{fill:url(#SVGID_67_);}
	.st78{fill:#253B80;}
	.st79{fill:url(#SVGID_68_);}
	.st80{fill:#030C62;}
	.st81{fill:url(#SVGID_69_);}
	.st82{fill:url(#SVGID_70_);}
	.st83{fill:url(#SVGID_71_);}
	.st84{fill:url(#SVGID_72_);}
	.st85{fill:url(#SVGID_73_);}
	.st86{fill:url(#SVGID_74_);}
	.st87{fill:url(#SVGID_75_);}
	.st88{fill:url(#SVGID_76_);}
	.st89{fill:url(#SVGID_77_);}
	.st90{fill:url(#SVGID_78_);}
	.st91{fill:url(#SVGID_79_);}
	.st92{fill:url(#SVGID_80_);}
	.st93{fill:url(#SVGID_81_);}
	.st94{fill-rule:evenodd;clip-rule:evenodd;fill:#86A0CE;}
	.st95{fill-rule:evenodd;clip-rule:evenodd;fill:#16315D;}
	.st96{fill-rule:evenodd;clip-rule:evenodd;fill:#E9EFFE;}
	.st97{fill:#EE018C;}
	.st98{fill:#E9EFFE;}
</style>
<g id="Layer_1">
	<path class="st78" d="M361.8,437.4l6.2-39.6l-13.9-0.3h-66.3l46.1-292.2c0.1-0.9,0.6-1.7,1.3-2.3c0.7-0.6,1.5-0.9,2.5-0.9h111.8
		c37.1,0,62.7,7.7,76.1,23c6.3,7.2,10.3,14.6,12.2,22.8c2,8.6,2.1,18.9,0.1,31.5l-0.1,0.9v8.1l6.3,3.6c5.3,2.8,9.5,6,12.7,9.7
		c5.4,6.1,8.8,13.9,10.3,23.1c1.5,9.5,1,20.8-1.5,33.5c-2.9,14.7-7.5,27.5-13.7,37.9c-5.7,9.6-13.1,17.6-21.8,23.8
		c-8.3,5.9-18.2,10.4-29.3,13.2c-10.8,2.8-23.1,4.2-36.6,4.2h-8.7c-6.2,0-12.3,2.2-17,6.3c-4.8,4.1-7.9,9.7-8.9,15.8l-0.7,3.6
		l-11,69.8l-0.5,2.6c-0.1,0.8-0.4,1.2-0.7,1.5c-0.3,0.3-0.7,0.4-1.1,0.4L361.8,437.4z"/>
	<linearGradient id="SVGID_1_" gradientUnits="userSpaceOnUse" x1="464.4537" y1="181.2903" x2="464.4537" y2="449.5947">
		<stop  offset="0" style="stop-color:#68B4F7"/>
		<stop  offset="0.9997" style="stop-color:#1A74C2"/>
	</linearGradient>
	<path style="fill:url(#SVGID_1_);" d="M565.8,193.6c-4.3-4.9-9.7-9-15.9-12.3c-0.3,2.1-0.7,4.3-1.1,6.6
		c-14.7,75.7-65.2,101.9-129.6,101.9h-32.8c-7.9,0-14.5,5.7-15.7,13.5l-16.8,106.5l-4.8,30.2c-0.8,5.1,3.1,9.7,8.3,9.7h58.2
		c6.9,0,12.7-5,13.8-11.8l0.6-3l11-69.5l0.7-3.8c1.1-6.8,6.9-11.8,13.8-11.8h8.7c56.4,0,100.5-22.9,113.4-89.1
		C582.8,232.9,580,209.8,565.8,193.6z"/>
	<path class="st80" d="M537.7,176.2c-1.1-0.4-2.2-0.7-3.3-1c-2.3-0.7-4.6-1.3-7-1.8c-2.4-0.5-4.9-1-7.4-1.4
		c-8.8-1.4-18.5-2.1-28.9-2.1h-87.6c-2.2,0-4.2,0.5-6,1.4c-4,1.9-7,5.8-7.8,10.5l-18.6,118.1l-0.5,3.4c1.2-7.8,7.9-13.5,15.7-13.5
		h32.8c64.4,0,114.9-26.2,129.6-101.9c0.4-2.2,0.8-4.4,1.1-6.6C546.1,179.3,542.1,177.6,537.7,176.2z"/>
	<linearGradient id="SVGID_2_" gradientUnits="userSpaceOnUse" x1="413.3161" y1="89.9047" x2="413.3161" y2="409.7006">
		<stop  offset="0" style="stop-color:#4357AF"/>
		<stop  offset="1" style="stop-color:#000959"/>
	</linearGradient>
	<path style="fill:url(#SVGID_2_);" d="M534.7,117c-16.7-19-46.8-27.1-85.3-27.1H337.6c-7.9,0-14.6,5.7-15.8,13.5l-46.6,295.2
		c-0.9,5.8,3.6,11.1,9.5,11.1h69l17.3-110l18.6-118.1c0.7-4.7,3.7-8.5,7.8-10.4c1.8-0.9,3.9-1.4,6-1.4h87.6
		c10.4,0,20.1,0.7,28.9,2.1c2.5,0.4,5,0.9,7.4,1.4c2.4,0.5,4.7,1.1,7,1.8c1.1,0.3,2.2,0.7,3.3,1c4.4,1.4,8.4,3.1,12.1,5.1
		C554.3,153.3,549.8,134.3,534.7,117z"/>
</g>
<g id="Layer_2">
</g>
<g id="Layer_3">
</g>
</svg>
