<?xml version="1.0" encoding="utf-8"?>
<!-- Generator: Adobe Illustrator 22.0.1, SVG Export Plug-In . SVG Version: 6.00 Build 0)  -->
<svg version="1.1" xmlns="http://www.w3.org/2000/svg" xmlns:xlink="http://www.w3.org/1999/xlink" x="0px" y="0px"
	 viewBox="0 0 856 540" style="enable-background:new 0 0 856 540;" xml:space="preserve">
<style type="text/css">
	.st0{fill-rule:evenodd;clip-rule:evenodd;fill:#FFFFFF;}
	.st1{fill-rule:evenodd;clip-rule:evenodd;fill:url(#SVGID_1_);}
	.st2{fill-rule:evenodd;clip-rule:evenodd;fill:url(#SVGID_2_);}
	.st3{fill:none;}
	.st4{fill:url(#SVGID_3_);}
	.st5{fill:#FFFFFF;}
	.st6{fill:url(#SVGID_4_);}
	.st7{fill:url(#SVGID_5_);}
	.st8{fill:url(#SVGID_6_);}
	.st9{fill-rule:evenodd;clip-rule:evenodd;}
	.st10{fill-rule:evenodd;clip-rule:evenodd;fill:url(#SVGID_7_);}
	.st11{fill-rule:evenodd;clip-rule:evenodd;fill:url(#SVGID_8_);}
	.st12{fill-rule:evenodd;clip-rule:evenodd;fill:url(#SVGID_9_);}
	.st13{fill-rule:evenodd;clip-rule:evenodd;fill:url(#SVGID_10_);}
	.st14{fill-rule:evenodd;clip-rule:evenodd;fill:url(#SVGID_11_);}
	.st15{fill-rule:evenodd;clip-rule:evenodd;fill:url(#SVGID_12_);}
	.st16{fill-rule:evenodd;clip-rule:evenodd;fill:url(#SVGID_13_);}
	.st17{fill-rule:evenodd;clip-rule:evenodd;fill:url(#SVGID_14_);}
	.st18{fill-rule:evenodd;clip-rule:evenodd;fill:url(#SVGID_15_);}
	.st19{fill-rule:evenodd;clip-rule:evenodd;fill:url(#SVGID_16_);}
	.st20{fill-rule:evenodd;clip-rule:evenodd;fill:url(#SVGID_17_);}
	.st21{fill:url(#SVGID_18_);}
	.st22{fill:url(#SVGID_19_);}
	.st23{fill:url(#SVGID_20_);}
	.st24{fill:url(#SVGID_21_);}
	.st25{fill:url(#SVGID_22_);}
	.st26{fill:url(#SVGID_23_);}
	.st27{fill:url(#SVGID_24_);}
	.st28{fill:url(#SVGID_25_);}
	.st29{fill:url(#SVGID_26_);}
	.st30{fill:url(#SVGID_27_);}
	.st31{fill:url(#SVGID_28_);}
	.st32{fill:url(#SVGID_29_);}
	.st33{fill:url(#SVGID_30_);}
	.st34{fill:url(#SVGID_31_);}
	.st35{fill:url(#SVGID_32_);}
	.st36{fill:url(#SVGID_33_);}
	.st37{fill:url(#SVGID_34_);}
	.st38{fill:url(#SVGID_35_);}
	.st39{fill:url(#SVGID_36_);}
	.st40{fill:url(#SVGID_37_);}
	.st41{opacity:0.2;enable-background:new    ;}
	.st42{fill:url(#SVGID_38_);}
	.st43{fill:url(#SVGID_39_);}
	.st44{fill:url(#SVGID_40_);}
	.st45{fill:url(#SVGID_41_);}
	.st46{fill:url(#SVGID_42_);}
	.st47{fill:url(#SVGID_43_);}
	.st48{opacity:0.12;enable-background:new    ;}
	.st49{fill:url(#SVGID_44_);}
	.st50{fill:url(#SVGID_45_);}
	.st51{fill:url(#SVGID_46_);}
	.st52{fill:url(#SVGID_47_);}
	.st53{fill:url(#SVGID_48_);}
	.st54{fill:url(#SVGID_49_);}
	.st55{fill:url(#SVGID_50_);}
	.st56{opacity:0.25;fill:#FFFFFF;enable-background:new    ;}
	.st57{fill:url(#SVGID_51_);}
	.st58{fill:url(#SVGID_52_);}
	.st59{fill:url(#SVGID_53_);}
	.st60{fill:url(#SVGID_54_);}
	.st61{fill:url(#SVGID_55_);}
	.st62{fill:url(#SVGID_56_);}
	.st63{fill:url(#SVGID_57_);}
	.st64{fill:url(#SVGID_58_);}
	.st65{fill:url(#Apple_1_);}
	.st66{fill:#010101;}
	.st67{fill:#F6EB16;}
	.st68{fill:url(#SVGID_59_);}
	.st69{fill:url(#SVGID_60_);}
	.st70{fill:url(#Nintendo_eShop_2_);}
	.st71{fill:url(#SVGID_61_);}
	.st72{fill:url(#SVGID_62_);}
	.st73{fill:url(#SVGID_63_);}
	.st74{fill:url(#SVGID_64_);}
	.st75{fill:url(#SVGID_65_);}
	.st76{fill:url(#SVGID_66_);}
	.st77{fill:url(#SVGID_67_);}
	.st78{fill:#253B80;}
	.st79{fill:url(#SVGID_68_);}
	.st80{fill:#030C62;}
	.st81{fill:url(#SVGID_69_);}
	.st82{fill:url(#SVGID_70_);}
	.st83{fill:url(#SVGID_71_);}
	.st84{fill:url(#SVGID_72_);}
	.st85{fill:url(#SVGID_73_);}
	.st86{fill:url(#SVGID_74_);}
	.st87{fill:url(#SVGID_75_);}
	.st88{fill:url(#SVGID_76_);}
	.st89{fill:url(#SVGID_77_);}
	.st90{fill:url(#SVGID_78_);}
	.st91{fill:url(#SVGID_79_);}
	.st92{fill:url(#SVGID_80_);}
	.st93{fill:url(#SVGID_81_);}
	.st94{fill-rule:evenodd;clip-rule:evenodd;fill:#86A0CE;}
	.st95{fill-rule:evenodd;clip-rule:evenodd;fill:#16315D;}
	.st96{fill-rule:evenodd;clip-rule:evenodd;fill:#E9EFFE;}
	.st97{fill:#EE018C;}
	.st98{fill:#E9EFFE;}
</style>
<g id="Layer_1">
	<linearGradient id="SVGID_1_" gradientUnits="userSpaceOnUse" x1="428" y1="540" x2="428" y2="0">
		<stop  offset="0" style="stop-color:#000053"/>
		<stop  offset="1" style="stop-color:#3408AC"/>
	</linearGradient>
	<rect class="st1" width="856" height="540"/>
	<linearGradient id="SVGID_2_" gradientUnits="userSpaceOnUse" x1="428" y1="449.0432" x2="428" y2="90.9568">
		<stop  offset="0.333" style="stop-color:#DBD6FF"/>
		<stop  offset="1" style="stop-color:#FFFFFF"/>
	</linearGradient>
	<path style="fill:url(#SVGID_2_);" d="M272.6,380c11,3.6,31.8,2.6,45-2.3l37.3-13.6v39.2c-2.6,0.3-5.2,1-7.5,1.3
		c-37.6,5.8-77.1,3.6-116.7-9.4c-36.6-10.4-42.5-31.8-26.2-43.7c15.2-11.3,41.5-20.1,41.5-20.1l108.6-38.9v43.7l-78.1,28.5
		C263.2,369.3,261.3,376.5,272.6,380 M625.2,325.9c-31.8-12.3-71.9-16.2-105-12.6c-32.7,3.6-56.1,11.7-56.1,11.7l-4.5,1.3v46
		l81-28.5c13.3-4.9,34-5.8,45-2.3c11.7,3.9,9.4,10.4-4.5,15.6l-121.5,43.4v43.4l164.9-59.3c0,0,22.4-8.4,31.1-19.8
		C665,353.4,661.1,336.9,625.2,325.9z M559.7,230.3c0-61.6-21.4-88.8-85.6-110.8c-25-8.4-71.9-22.7-104-28.5v334.1l75.5,24V169.4
		c0-13.3,5.8-22.4,15.2-19.1c12,3.6,14.6,15.6,14.6,28.5v111.5C522.4,313.3,559.4,290.3,559.7,230.3z"/>
</g>
<g id="Layer_2">
</g>
<g id="Layer_3">
</g>
</svg>
