<?xml version="1.0" encoding="utf-8"?>
<!-- Generator: Adobe Illustrator 23.0.1, SVG Export Plug-In . SVG Version: 6.00 Build 0)  -->
<svg version="1.1" id="Layer_3" xmlns="http://www.w3.org/2000/svg" xmlns:xlink="http://www.w3.org/1999/xlink" x="0px" y="0px"
	 viewBox="0 0 719.4 689.7" style="enable-background:new 0 0 719.4 689.7;" xml:space="preserve">
<style type="text/css">
	.st0{fill:#FFC200;}
</style>
<path class="st0" d="M699.4,316.4c15.3-14.9,20.7-36.8,14.1-57.1s-23.8-34.8-45-37.9l-167.7-24.4c-8.4-1.2-15.6-6.5-19.4-14.1
	l-75-151.9l0,0C397.1,11.9,378,0,356.6,0s-40.5,11.9-50,31.1l-75,151.9c-3.7,7.6-11,12.8-19.4,14.1L44.6,221.4
	c-21.1,3.1-38.4,17.6-45,37.9s-1.2,42.2,14.1,57.1l121.3,118.3c6.1,5.9,8.8,14.4,7.4,22.8l-28.6,167c-3.6,21.1,4.9,41.9,22.2,54.5
	c17.3,12.6,39.8,14.2,58.7,4.2l150-78.8c7.5-3.9,16.4-3.9,23.9,0l150,78.8c8.2,4.3,17.1,6.5,26,6.5c11.5,0,22.9-3.6,32.7-10.7
	c17.3-12.6,25.8-33.4,22.2-54.5l-28.6-167c-1.4-8.3,1.3-16.9,7.4-22.8L699.4,316.4z"/>
</svg>
