<?xml version="1.0" encoding="utf-8"?>
<!-- Generator: Adobe Illustrator 24.1.3, SVG Export Plug-In . SVG Version: 6.00 Build 0)  -->
<svg version="1.1" id="Layer_1" xmlns="http://www.w3.org/2000/svg" xmlns:xlink="http://www.w3.org/1999/xlink" x="0px" y="0px"
	 viewBox="0 0 630 400" style="enable-background:new 0 0 630 400;" xml:space="preserve">
<style type="text/css">
	.st0{fill:#004087;}
	.st1{fill:#FFFFFF;}
	.st2{fill:#EF5022;}
	.st3{fill:#7FB802;}
	.st4{fill:#02A2ED;}
	.st5{fill:#FDB702;}
</style>
<rect class="st0" width="630" height="400"/>
<g>
	<path class="st1" d="M241.4,208.1l-3,8.5h-0.2c-0.5-1.9-1.4-4.8-2.9-8.3l-16-40.2h-15.7v64.1h10.4v-39.6c0-2.5,0-5.3-0.1-8.8
		c-0.1-1.7-0.2-3.1-0.3-4.1h0.2c0.5,2.5,1.1,4.3,1.5,5.5l19.2,46.8h7.3l19.1-47.2c0.4-1.1,0.8-3.2,1.2-5.1h0.2
		c-0.2,4.7-0.4,9-0.5,11.5v40.6h11v-64h-15.1L241.4,208.1z M283.4,186h10.8v46h-10.8V186z M288.8,166.6c-1.8,0-3.3,0.7-4.6,1.8
		c-1.2,1.2-1.9,2.7-1.9,4.5c0,1.7,0.7,3.2,1.9,4.4s2.7,1.7,4.6,1.7c1.8,0,3.4-0.7,4.6-1.7c1.2-1.2,1.9-2.7,1.9-4.4
		c0-1.7-0.7-3.2-1.9-4.5C292.3,167.2,290.7,166.6,288.8,166.6 M332.4,185.6c-2-0.4-4.1-0.7-6.1-0.7c-4.9,0-9.4,1.1-13.1,3.2
		c-3.7,2.2-6.7,5.1-8.6,8.9c-2,3.8-3,8.2-3,13.3c0,4.4,1,8.3,2.9,11.9c1.9,3.5,4.6,6.3,8.1,8.2c3.4,1.9,7.4,2.9,11.9,2.9
		c5.1,0,9.5-1.1,13-3.1l0.1-0.1v-10l-0.4,0.3c-1.6,1.2-3.4,2.2-5.2,2.7c-1.9,0.7-3.6,1-5.1,1c-4.3,0-7.7-1.2-10.1-4
		c-2.5-2.7-3.7-6.3-3.7-10.9c0-4.7,1.2-8.5,3.8-11.2c2.6-2.7,6-4.1,10.1-4.1c3.5,0,7.1,1.2,10.3,3.5l0.4,0.3v-10.5l-0.1-0.1
		C336.1,186.6,334.5,186,332.4,185.6 M368,185.2c-2.7,0-5.1,0.8-7.3,2.6c-1.8,1.5-3.1,3.6-4.1,6.2h-0.1v-8h-10.8v46h10.8v-23.5
		c0-4,0.8-7.3,2.7-9.7c1.8-2.5,4.1-3.7,7-3.7c1,0,2,0.2,3.2,0.4c1.2,0.3,2,0.7,2.6,1.1l0.4,0.3v-10.8L372,186
		C371.3,185.5,369.8,185.2,368,185.2 M397.3,185c-7.5,0-13.6,2.2-17.8,6.6c-4.3,4.4-6.4,10.5-6.4,18.1c0,7.1,2.2,12.9,6.3,17.2
		c4.1,4.1,9.8,6.3,16.8,6.3c7.4,0,13.3-2.2,17.5-6.7c4.3-4.5,6.4-10.5,6.4-17.8c0-7.3-2-13.1-6.1-17.3
		C410.2,187.1,404.5,185,397.3,185 M406,220.3c-2,2.6-5.1,3.8-9,3.8s-7.1-1.2-9.3-4c-2.2-2.6-3.3-6.3-3.3-11c0-4.9,1.2-8.6,3.3-11.3
		c2.2-2.7,5.3-4,9.2-4c3.8,0,6.8,1.2,9,3.8c2.2,2.6,3.3,6.3,3.3,11.2C408.9,213.9,408,217.8,406,220.3 M444.2,205.1
		c-3.4-1.4-5.6-2.5-6.6-3.4c-0.8-0.8-1.2-2-1.2-3.5c0-1.2,0.5-2.5,1.7-3.3s2.7-1.2,4.7-1.2c1.8,0,3.7,0.3,5.6,0.8
		c1.8,0.5,3.5,1.2,4.8,2.2l0.4,0.3v-10.1l-0.2-0.1c-1.2-0.5-2.9-1-4.9-1.4c-2-0.3-3.8-0.5-5.3-0.5c-5.1,0-9.4,1.2-12.7,4
		c-3.3,2.6-4.9,6.1-4.9,10.1c0,2.2,0.3,4.1,1.1,5.6c0.7,1.6,1.8,3.1,3.3,4.3c1.5,1.2,3.6,2.5,6.6,3.7c2.5,1.1,4.4,1.9,5.6,2.6
		c1.2,0.7,1.9,1.4,2.5,2c0.4,0.7,0.7,1.5,0.7,2.6c0,3.1-2.3,4.6-7.1,4.6c-1.8,0-3.7-0.3-6-1.1c-2.2-0.7-4.3-1.8-6.1-3.1l-0.4-0.3
		v10.5l0.2,0.1c1.6,0.7,3.5,1.2,5.8,1.8c2.3,0.4,4.4,0.7,6.2,0.7c5.6,0,10.1-1.2,13.4-4c3.3-2.7,5.1-6.1,5.1-10.5
		c0-3.1-0.8-5.8-2.7-7.9C451.5,208.8,448.5,206.7,444.2,205.1 M485,185c-7.5,0-13.6,2.2-17.8,6.6c-4.2,4.4-6.4,10.5-6.4,18.1
		c0,7.1,2.2,12.9,6.3,17.2c4.1,4.1,9.8,6.3,16.8,6.3c7.4,0,13.3-2.2,17.5-6.7c4.3-4.5,6.4-10.5,6.4-17.8c0-7.3-2-13.1-6.1-17.3
		C497.9,187.1,492.1,185,485,185 M493.5,220.3c-2,2.6-5.1,3.8-9,3.8c-4,0-7.1-1.2-9.3-4c-2.2-2.6-3.3-6.3-3.3-11
		c0-4.9,1.2-8.6,3.3-11.3c2.2-2.7,5.3-4,9.2-4c3.7,0,6.8,1.2,9,3.8c2.2,2.6,3.3,6.3,3.3,11.2C496.7,213.9,495.6,217.8,493.5,220.3
		 M565.5,194.9V186h-10.9v-13.6l-0.3,0.1l-10.3,3.1l-0.2,0.1V186h-16.3v-5.8c0-2.7,0.7-4.7,1.8-6.1c1.2-1.3,2.9-2,5.1-2
		c1.5,0,3.1,0.3,4.8,1.1l0.4,0.2v-9.4l-0.2-0.1c-1.5-0.5-3.5-0.8-6.1-0.8c-3.2,0-6.1,0.7-8.6,2c-2.6,1.4-4.5,3.3-5.9,5.9
		c-1.4,2.5-2.2,5.3-2.2,8.5v6.4h-7.5v8.8h7.5v37.2h10.9v-37.1h16.3v23.6c0,9.7,4.6,14.6,13.7,14.6c1.5,0,3.1-0.2,4.6-0.5
		c1.6-0.3,2.7-0.7,3.4-1.1l0.1-0.1v-8.9l-0.4,0.3c-0.7,0.4-1.2,0.7-2.2,1c-0.8,0.2-1.6,0.3-2.2,0.3c-2.2,0-3.6-0.5-4.7-1.7
		c-1-1.2-1.5-3.1-1.5-5.9v-21.7H565.5L565.5,194.9z"/>
	<path class="st2" d="M64.5,146.5h50.8v50.8H64.5V146.5z"/>
	<path class="st3" d="M120.7,146.5h50.8v50.8h-50.8V146.5z"/>
	<path class="st4" d="M64.5,202.7h50.8v50.8H64.5V202.7z"/>
	<path class="st5" d="M120.7,202.7h50.8v50.8h-50.8V202.7z"/>
</g>
</svg>
