<?xml version="1.0" encoding="utf-8"?>
<!-- Generator: Adobe Illustrator 24.1.3, SVG Export Plug-In . SVG Version: 6.00 Build 0)  -->
<svg version="1.1" id="Layer_1" xmlns="http://www.w3.org/2000/svg" xmlns:xlink="http://www.w3.org/1999/xlink" x="0px" y="0px"
	 viewBox="0 0 630 400" style="enable-background:new 0 0 630 400;" xml:space="preserve">
<style type="text/css">
	.st0{fill-rule:evenodd;clip-rule:evenodd;fill:#D8362C;}
	.st1{fill-rule:evenodd;clip-rule:evenodd;fill:#FFFFFF;}
</style>
<rect width="630" height="400"/>
<g>
	<path class="st0" d="M433.2,157.5v9h7.8v8.3h-7.8v40.7c0,4.4,0.3,6.8,0.8,7.3c0.6,0.5,2.9,0.7,6.9,0.7v10.7h-9.9
		c-5.6,0-8.2-0.2-10.5-0.5c-2.3-0.3-4.5-1.2-6.3-2.6c-1.8-1.4-2.9-3-3.4-4.8c-0.4-1.8-0.7-6-0.7-12.5v-38.9h-4.8v-8.3h4.8v-9H433.2
		 M497.4,179.7c-0.8-2.3-2.2-4.5-4.3-6.7c-2.1-2.2-5.1-3.9-8.9-5.2c-3.8-1.3-8.5-2-13.8-2c-6.4,0-11.6,1-15.7,3.1
		c-4.1,2.1-6.9,4.8-8.5,8.3c-1.6,3.5-2.4,8.3-2.4,14.4v17c0,5.6,0.4,9.8,1.3,12.6c0.8,2.7,2.3,5.2,4.3,7.2c2,2,4.9,3.4,8.6,4.4
		c3.7,1,8.1,1.5,13.4,1.5c4.7,0,8.9-0.6,12.6-1.7c3.6-1.1,6.6-2.9,9-5.3c2.3-2.4,3.8-5,4.6-7.8c0.7-2.8,1.1-7.1,1.1-13.1v-16.2
		C498.5,185.5,498.1,182,497.4,179.7 M474.7,215.7c0,2.9-0.2,4.7-0.7,5.6c-0.5,0.9-1.4,1.3-2.9,1.3c-1.4,0-2.4-0.5-2.8-1.4
		c-0.5-1-0.7-3-0.7-6.1v-29.8c0-3.4,0.2-5.5,0.7-6.4c0.5-0.9,1.4-1.3,2.9-1.3c1.4,0,2.4,0.4,2.8,1.3c0.4,0.9,0.7,3,0.7,6.4V215.7
		 M398.3,195.8c-2.9-3.7-10-8.5-21.2-14.4c-3.9-2-6.3-3.7-7.1-5.1c-0.9-1.4-1.4-3.5-1.4-6.3c0-2.2,0.4-3.8,1.2-4.9
		c0.8-1.1,1.9-1.6,3.4-1.6c1.4,0,2.4,0.4,3,1.2c0.6,0.8,0.9,2.6,0.9,5.5v6.3h23.4v-3.3c0-6.7-0.7-11.4-2.2-14.2
		c-1.5-2.8-4.5-5.1-9.1-6.9c-4.6-1.8-10.2-2.7-16.7-2.7c-6,0-11.1,0.8-15.3,2.5c-4.2,1.7-7.3,4-9.2,7c-1.9,3-2.8,7.7-2.8,14.2
		c0,4.5,0.7,8.1,2,11c1.3,2.9,3,5.1,5,6.8c2,1.6,6.2,4.2,12.4,7.8c6.2,3.6,10.2,6.1,11.8,7.7c1.5,1.6,2.3,4.8,2.3,9.7
		c0,2.2-0.4,3.9-1.2,5.1c-0.8,1.2-2.1,1.7-3.7,1.7c-1.7,0-2.8-0.4-3.5-1.3c-0.6-0.9-1-2.9-1-6.1v-5.9h-23.4v3
		c0,6.3,0.7,9.5,2.2,12.9c1.5,3.4,4.6,6.3,9.4,8.5c4.8,2.2,10.5,3.3,17.2,3.3c6.1,0,11.5-1,16.1-2.9c4.6-1.9,7.7-4.3,9.4-7.1
		c1.6-2.8,2.4-7.3,2.4-13.2C402.7,205.5,401.2,199.5,398.3,195.8 M506.7,166.2v84.5h21.4v-22.8c2,2.3,4.3,4.1,6.8,5.2
		c2.5,1.2,5.3,1.8,8.1,1.8c3.6,0,6.8-0.8,9.3-2.3c2.6-1.5,4.3-3.6,5.1-6.1c0.8-2.6,1.2-6.9,1.2-13v-28.1c0-5.3-0.3-9-1-11.2
		c-0.7-2.2-2.3-4.2-5-5.8c-2.7-1.7-5.8-2.5-9.4-2.5c-2.9,0-5.7,0.6-8.3,1.8c-2.5,1.2-4.8,2.9-6.9,5.3l0-6.7L506.7,166.2L506.7,166.2
		z M535.1,215c0,3.6-0.2,5.9-0.5,6.8c-0.4,0.9-1.3,1.4-2.8,1.4c-1.5,0-2.5-0.5-3-1.5c-0.5-1-0.7-3.5-0.7-7.6v-27.7
		c0-3.9,0.2-6.3,0.7-7.3c0.4-1,1.4-1.5,2.9-1.5c1.6,0,2.5,0.4,2.8,1.3c0.3,0.9,0.5,3.4,0.5,7.5L535.1,215L535.1,215z M563.7,168.3
		h0.5c0.4,0,0.8,0,0.8-0.5c0-0.4-0.4-0.5-0.7-0.5h-0.7V168.3z M563.2,166.9h1.2c0.8,0,1.1,0.3,1.1,0.9c0,0.6-0.4,0.8-0.8,0.9
		l0.9,1.4h-0.5l-0.9-1.4h-0.5v1.4h-0.5V166.9z M564.3,170.8c1.3,0,2.2-1,2.2-2.3c0-1.3-1-2.3-2.2-2.3c-1.3,0-2.3,1-2.3,2.3
		C562,169.8,563,170.8,564.3,170.8z M564.3,165.8c1.5,0,2.7,1.2,2.7,2.7c0,1.5-1.2,2.7-2.7,2.8c0,0,0,0,0,0c-1.5,0-2.7-1.2-2.7-2.7
		c0,0,0,0,0,0C561.5,166.9,562.8,165.8,564.3,165.8z"/>
	<path class="st1" d="M151.6,185.7c0-3.7,0.2-6,0.6-6.9c0.4-0.9,1.4-1.3,3-1.3c1.4,0,2.4,0.5,3,1.6c0.6,1.1,0.9,3.3,0.9,6.8
		c0,2.8-0.3,4.6-0.8,5.5c-0.6,0.9-4.8,2.6-12.8,5.2c-7.5,2.4-12.1,4.5-14,6.3c-1.9,1.8-2.8,5.2-2.8,10.1v5.4c0,6.7,1.8,11,5.3,13
		c3.5,2,7.4,2.9,11.7,2.9c3.2,0,6-0.6,8.4-1.8c2.3-1.2,4.3-2.9,5.7-5.3v5.9h23.7v-33.2c0-10.9-0.4-18.1-1.3-21.6
		c-0.8-3.5-3.3-6.4-7.5-8.9c-4.2-2.4-10.4-3.6-18.6-3.6c-6.9,0-12.4,1.1-16.7,3.2c-4.3,2.1-7.1,4.6-8.6,7.4c-1.4,2.8-2.1,5-2.1,10.1
		v2.9h22.9C151.6,189.3,151.6,185.7,151.6,185.7z M159.2,215.2c0,3.3-0.2,5.4-0.7,6.1c-0.4,0.8-1.4,1.2-2.9,1.2
		c-1.6,0-2.6-0.5-3.2-1.5c-0.5-1-0.8-3.2-0.8-6.6c0-3,0.3-5.2,0.9-6.8c0.6-1.6,2.8-3.5,6.7-5.9V215.2z M214.9,167.1l0,6.3
		c1.8-2.5,4-4.4,6.6-5.7c2.6-1.3,5.5-1.9,8.7-1.9c6.4,0,11.4,2.5,15.1,7.6c2-2.5,4.3-4.5,6.8-5.7c2.5-1.3,5.3-1.9,8.4-1.9
		c4,0,7.4,0.8,10,2.5c2.7,1.7,4.3,3.8,5.1,6.2c0.7,2.5,1.1,6.4,1.1,12v47.8h-23.2v-43.8c0-5.7-0.2-9.3-0.7-10.6
		c-0.4-1.4-1.5-2.1-3.1-2.1c-1.7,0-2.7,0.7-3.2,2c-0.5,1.4-0.7,4.9-0.7,10.7v43.8h-23.2v-42.7c0-6.6-0.2-10.5-0.6-11.8
		c-0.4-1.3-1.4-2-3.1-2c-1.1,0-2,0.4-2.7,1.1c-0.8,0.7-1.2,1.5-1.2,2.5c-0.1,1-0.1,3.1-0.1,6.4v46.6h-23.2v-67.2H214.9 M336.9,192.4
		c0-6.4-0.9-11.4-2.6-14.9c-1.8-3.5-4.8-6.4-9.2-8.5c-4.4-2.1-9.9-3.2-16.6-3.2c-5.5,0-10.3,0.9-14.5,2.7c-4.2,1.8-7.2,4.3-9.1,7.7
		c-1.9,3.3-2.8,7.9-2.8,13.7V209c0,4.9,0.4,8.7,1.2,11.3c0.8,2.6,2.3,4.9,4.5,7.1c2.1,2.1,5.1,3.8,9,5c3.9,1.2,8.3,1.8,13.4,1.8
		c5.2,0,9.5-0.6,13-1.9c3.5-1.2,6.3-3.1,8.5-5.6c2.2-2.5,3.7-4.8,4.3-7c0.6-2.2,0.9-5.3,0.9-9.4v-3.9h-22.6v7.7
		c0,3.3-0.3,5.5-0.9,6.6c-0.6,1.1-1.8,1.7-3.7,1.7c-1.5,0-2.5-0.4-3-1.3c-0.5-0.9-0.8-2.8-0.8-5.8v-14.3h30.9V192.4L336.9,192.4z
		 M306,191v-5.4c0-3.7,0.2-6,0.6-6.8c0.4-0.8,1.4-1.3,3.1-1.3c1.4,0,2.3,0.5,2.7,1.5c0.4,1,0.7,3.2,0.7,6.6v5.4H306L306,191z
		 M120.5,182H95.8v-7.6c0-4.8-0.2-7.8-0.7-9c-0.5-1.2-1.6-1.8-3.4-1.8c-1.5,0-2.6,0.5-3.1,1.6c-0.5,1.1-0.8,3.7-0.8,8v40.4
		c0,3.8,0.3,6.3,0.8,7.5c0.5,1.2,1.6,1.8,3.3,1.8c1.8,0,3-0.7,3.7-2c0.6-1.4,1-4,1-7.9v-10h-4.9v-10.7h28.9v43.1h-16.1l-1.8-6
		c-1.7,2.6-3.8,4.5-6.4,5.8c-2.6,1.3-5.6,1.9-9.1,1.9c-4,0-8-0.9-11.7-2.7c-3.6-1.8-6.4-4-8.3-6.6c-1.9-2.6-3.1-5.4-3.5-8.3
		c-0.5-2.9-0.7-7.2-0.7-13v-25c0-8,0.5-13.9,1.5-17.5c1-3.6,3.8-7,8.4-10c4.7-3,10.7-4.5,18-4.5c7.3,0,13.3,1.3,18.1,3.9
		c4.8,2.6,7.9,5.8,9.4,9.4c1.4,3.6,2.2,8.9,2.2,15.8V182"/>
</g>
</svg>
