<?xml version="1.0" encoding="utf-8"?>
<!-- Generator: Adobe Illustrator 24.1.3, SVG Export Plug-In . SVG Version: 6.00 Build 0)  -->
<svg version="1.1" id="Layer_1" xmlns="http://www.w3.org/2000/svg" xmlns:xlink="http://www.w3.org/1999/xlink" x="0px" y="0px"
	 viewBox="0 0 630 400" style="enable-background:new 0 0 630 400;" xml:space="preserve">
<style type="text/css">
	.st0{fill:#022345;}
	.st1{fill:#FFFFFF;}
</style>
<rect class="st0" width="630" height="400"/>
<path class="st1" d="M423.2,97H386v6.1h9.9v188c-0.3,4-1.8,5.6-7.8,5.8h-2v5.3h42v-5.3h-4.3c-7.1-0.3-9.6-3-9.9-9.4v-72.8h12.1
	c17.7,0,28.1-8.6,28.1-20v-76.1C454,107.4,445.2,97,423.2,97 M436.1,155.1v40.4c0,6.3-4,12.4-11.9,12.1h-10.4V103.1h9.4
	c7.1,0,12.9,5.8,12.9,12.9v0.3V155.1L436.1,155.1z M204.6,214.8h10.9v73.5c0.3,6.3-4.8,11.6-11.1,11.9h-0.3
	c-6.3,0-10.9-5.3-10.9-11.9V115.7c0-4.8,1-15.9,9.1-15.7c6.6,0,11.4,6.1,13.4,15.4c2.3,9.6,3.8,32.1,3.8,42c0,3.3,1.3,4.5,4.8,4.5
	h7.8V97h-6.3v3c0,3.3-2,3-3.8,2c-6.1-4-12.9-6.8-19.5-6.8c-10.9,0-26.5,4.8-26.5,25.5v152.4c0.3,26.5,14.2,31.3,28.1,31.6
	c10.6,0,15.7-5.6,19.7-7.6c2.8-1.3,4.8,2,4.8,6.1h5.6v-88.5h9.1v-6.6h-38.7V214.8z M295.3,208.2l9.9-82.4l11.1,82.6L295.3,208.2
	L295.3,208.2z M343.8,287.6L343.8,287.6L320.1,97l0,0l0,0h-18.7l-23.8,191.1c-1.3,6.1-1.5,7.6-10.6,8.1v1.3v4.5h29.3v-5.3
	c-3.3,0.3-6.6-0.8-9.1-2.8c-1-1.3-1.5-2.5-1.5-4l8.8-75.3h22.7l9.4,75.3c0,4.8-0.5,6.6-6.3,6.8h-2.8v5.3h37.4v-5.3h-1
	C346.6,296.7,344.3,292.1,343.8,287.6"/>
</svg>
