<?xml version="1.0" encoding="utf-8"?>
<!-- Generator: Adobe Illustrator 23.0.4, SVG Export Plug-In . SVG Version: 6.00 Build 0)  -->
<svg version="1.1" xmlns="http://www.w3.org/2000/svg" xmlns:xlink="http://www.w3.org/1999/xlink" x="0px" y="0px"
	 viewBox="0 0 630 400" style="enable-background:new 0 0 630 400;" xml:space="preserve">
<style type="text/css">
	.st0{fill:#CC482C;}
	.st1{fill:#FFFFFF;}
	.st2{fill:#EAD747;}
	.st3{fill:#537BC3;}
	.st4{fill:#EDC339;}
	.st5{fill:#3E3D3F;}
	.st6{fill:#403F40;}
	.st7{fill:#A62C2C;}
	.st8{fill:none;}
	.st9{fill:#C53415;}
	.st10{fill:#2647B8;}
	.st11{fill:#F8EA4A;}
	.st12{fill:#1F252C;}
	.st13{fill:none;stroke:#FFFFFF;stroke-width:0;stroke-linecap:round;stroke-linejoin:round;}
	.st14{fill:#122739;}
	.st15{fill:#333333;}
	.st16{fill:#73A33E;}
	.st17{fill:#201814;}
	.st18{fill:#F2F2F2;}
	.st19{fill:none;stroke:#000000;stroke-width:0;stroke-linecap:round;stroke-linejoin:round;}
	.st20{fill:#636466;}
	.st21{fill:#1D3A64;}
	.st22{fill:#CB729E;}
	.st23{fill:#C33A3A;}
	.st24{fill:#5992D0;}
	.st25{fill:#262626;}
	.st26{fill:#272727;}
	.st27{fill:#F5F5F5;}
	.st28{fill:#2D2D2D;}
	.st29{fill:#221F20;}
	.st30{fill:#C6473C;}
	.st31{fill:#010202;}
	.st32{fill:#92B330;}
	.st33{fill:#172D61;}
	.st34{fill:#FFFFFF;stroke:#172D61;stroke-width:0.554;}
	.st35{fill:#453018;}
	.st36{fill:#7C7C80;}
	.st37{fill:#3F4420;}
	.st38{fill:#EFCB32;}
	.st39{fill:#53534B;}
	.st40{fill:#3B221D;}
	.st41{fill:#A49152;}
	.st42{fill:#7896C5;}
	.st43{fill:#182544;}
	.st44{fill:#16223F;}
	.st45{fill:#73B0E0;}
	.st46{fill:#CE7256;}
	.st47{fill:#B8BBBD;}
	.st48{fill:#646564;}
	.st49{fill:#FCFCFC;}
	.st50{fill:#5B9CDE;}
	.st51{fill:#B53869;}
	.st52{fill:#7755F4;}
	.st53{fill:#D27294;}
	.st54{fill:#FFFFFF;stroke:#221F20;stroke-width:0.81;stroke-miterlimit:10;}
	.st55{fill:#CD651B;}
	.st56{fill-rule:evenodd;clip-rule:evenodd;fill:#FFFFFF;}
	.st57{fill:#010101;}
	.st58{fill:#F1E83C;}
	.st59{fill:#FBFAFA;}
	.st60{fill:#221A16;}
</style>
<g id="Layer_1">
	<g>
		<rect width="630" height="400"/>
	</g>
	<g>
		<path class="st8" d="M381.4,223.8c-14.5,0-22.7-10.6-22.7-23.8C358.7,213.2,366.9,223.8,381.4,223.8c14.5,0,22.7-10.7,22.7-23.8
			l0,0C404,213.1,395.9,223.8,381.4,223.8z"/>
		<path class="st8" d="M217.4,176.9c4-0.1,16.6-0.1,17,10.5c0.7,11.3-11.2,11.9-16.9,11.9h0.1c5.8,0,17.5-0.6,16.9-11.9
			C234.1,176.7,221.4,176.8,217.4,176.9z"/>
		<path class="st8" d="M457.9,176.5c-0.6,0-1.1,0-1.4,0h0.1C456.9,176.5,457.4,176.5,457.9,176.5z"/>
		<path class="st8" d="M457.5,197.6c-2.2,0-3.8,0-6-0.1v-21h-0.1v21C453.6,197.6,455.3,197.6,457.5,197.6L457.5,197.6
			c0.1,0,0.3,0,0.6,0C457.9,197.6,457.7,197.6,457.5,197.6z"/>
		<path class="st8" d="M404,200c0-13.1-8.2-23.6-22.4-23.8C395.9,176.3,404,186.9,404,200z"/>
		<path class="st1" d="M545.3,169H534l-20.3,62.1h9.6c3-11.2,4-14.4,4-14.4l25.1-0.1c2.9,8.3,5.1,14.6,5.1,14.6h9.9L545.3,169z
			 M529.6,209.6l9.8-30.7h0.1l10.3,30.6L529.6,209.6z"/>
		<path class="st1" d="M72,184.1L72,184.1c0-10.2,13.4-10.6,21.4-4c2.7-7.8,2.9-8.4,2.9-8.4c-23.1-11.1-33.7,3.6-33.7,13
			c0,22.5,31.9,17.7,27.3,33.5c-1.6,5.8-11.9,9-23.7,1.9c-0.9,2.4-2.3,5.4-3.7,8.3c15.6,8.2,35.9,4.2,36.5-12.6
			C99.9,194.4,72,196,72,184.1z"/>
		<path class="st1" d="M128.6,168.9l0.1,62.1h38.9v-8.1h-29.2v-21.1h20.7c0-1.8-0.1-4.3,0-7.7h-20.7v-16.9h29.2
			c-0.1-4.9,0-8.3,0-8.3H128.6z"/>
		<path class="st1" d="M481.3,186.4c-1.4-18.4-19.3-17-23.2-17.2c-3.3-0.1-10.3-0.2-16.3-0.2v62h9.7v-26.1c3.3,0,4.3,0,9.3-0.2
			l17.7,26.3h11.8L470.7,203C475.9,201.1,482,196.6,481.3,186.4z M457.5,197.6L457.5,197.6c-2.2,0-3.8,0-6-0.1v-21h0.1h5.1
			c0.3,0,0.8,0,1.4,0c4.1,0,13.9,0.5,14.9,9.4c1.3,11.3-11,11.7-14.7,11.7C457.9,197.6,457.6,197.6,457.5,197.6z"/>
		<polygon class="st1" points="311.7,193.6 279.9,193.6 279.9,169.2 270.4,169.2 270.4,231.1 279.9,231.1 279.9,201.8 311.7,201.8 
			311.7,231.1 321.2,231.1 321.2,169.2 311.7,169.2 		"/>
		<g>
			<path class="st8" d="M217.4,176.9c4-0.1,16.6-0.1,17,10.5c0.7,11.3-11.2,11.9-16.9,11.9h0.1c5.8,0,17.5-0.6,16.9-11.9
				C234.1,176.7,221.4,176.8,217.4,176.9z"/>
			<path class="st1" d="M218.1,169L218.1,169c-3.5-0.1-10.6-0.1-16.8-0.1V231h9.7v-23.5c2.4,0,7.4-0.2,11.5-0.3
				c5.7-0.1,20.4-2.9,20.3-19.9C242.9,168,221.6,169,218.1,169z M217.6,199.2L217.6,199.2h-6.4v-22.4h5.4h0.1c0.2,0,0.5,0,0.8,0
				c4-0.1,16.6-0.2,17.1,10.5C235.1,198.7,223.3,199.2,217.6,199.2z"/>
		</g>
		<path class="st1" d="M381.4,167.3c-19.7,0-32.6,14.6-32.6,32.7c0,18.1,12.9,32.7,32.6,32.7S414,218.1,414,200
			C414,181.9,401.1,167.3,381.4,167.3z M381.4,223.8c-14.5,0-22.7-10.6-22.7-23.8c0-0.8,0-1.6,0.1-2.4c0.1-1.6,0.4-3.1,0.8-4.6
			c0.4-1.5,0.9-2.9,1.5-4.3c0.2-0.3,0.3-0.7,0.5-1c3.5-6.9,10.3-11.5,19.9-11.5c0.1,0,0.2,0,0.3,0c14.2,0.1,22.4,10.6,22.4,23.8
			c0,0,0,0,0,0l0,0C404,213.1,395.9,223.8,381.4,223.8z"/>
	</g>
</g>
<g id="Layer_2">
</g>
<g id="Layer_3">
</g>
<g id="Layer_4">
</g>
<g id="Layer_5">
</g>
</svg>
