<?xml version="1.0" encoding="utf-8"?>
<!-- Generator: Adobe Illustrator 22.1.0, SVG Export Plug-In . SVG Version: 6.00 Build 0)  -->
<svg version="1.1" id="Layer_1" xmlns="http://www.w3.org/2000/svg" xmlns:xlink="http://www.w3.org/1999/xlink" x="0px" y="0px"
	 viewBox="0 0 630 400" style="enable-background:new 0 0 630 400;" xml:space="preserve">
<style type="text/css">
	.st0{fill:#FFFFFF;}
	.st1{fill:#C40728;}
	.st2{fill:#F4D933;}
	.st3{fill:#223C64;}
	.st4{fill:#387CC8;}
	.st5{fill:#FFC220;}
	.st6{fill:#010101;}
	.st7{fill:#F6EB16;}
	.st8{fill:#3E3D3F;}
	.st9{fill:#403F40;}
	.st10{fill:none;}
	.st11{fill:#E70000;}
</style>
<g>
	<rect class="st4" width="630" height="400"/>
</g>
<g transform="matrix(1.25 0 0 -1.25 -279.62 519.24)">
	<g transform="matrix(.25 0 0 .25 224.45 297.78)">
		<path class="st0" d="M208.7-58c0,0,39.6-162.4,46-188.7c7.4-30.8,20.7-42.1,59-34.4l24.7,100.7c6.3,25,10.5,42.8,14.5,68.3h0.7
			c2.8-25.7,6.9-43.3,12-68.4c0,0,10.1-45.7,15.2-69.7c5.2-24,19.6-39.1,57.1-30.9l59,223.2h-47.6l-20.1-96.5
			c-5.4-28.1-10.3-50-14.1-75.7h-0.7c-3.4,25.4-7.8,46.5-13.3,73.9l-21,98.3h-49.6l-22.4-95.9c-6.4-29.1-12.3-52.7-16.1-77.5h-0.7
			c-3.9,23.4-9,52.9-14.6,81.1c0,0-13.3,68.6-18,92.2L208.7-58L208.7-58z M662.4-58v-223.2h45.3v47.4V-58L662.4-58L662.4-58z
			 M1300.8-58v-164.6c0-22.7,4.3-38.6,13.4-48.3c8-8.5,21.1-14,36.9-14c13.4,0,26.6,2.5,32.8,4.9l-0.6,35.4c-4.6-1.1-9.9-2-17.2-2
			c-15.4,0-20.6,9.9-20.6,30.3v63h39.5v42.7h-39.5V-58L1300.8-58L1300.8-58z M561.2-109.7c-28.2,0-50.5-7.9-62.7-15l8.9-30.5
			c11.2,7,28.9,12.9,45.7,12.9c27.8,0.1,32.4-15.7,32.4-25.9v-2.4c-60.7,0.1-99-20.9-99-63.7c0-26.1,19.5-50.6,53.4-50.6
			c20.9,0,38.3,8.3,48.8,21.7h1c0,0,6.9-29,45.1-17.9c-2,12.1-2.7,24.9-2.7,40.4v59.6C632.2-143.1,616-109.7,561.2-109.7
			L561.2-109.7z M832.3-109.7c-28.4,0-41.1-14.4-48.8-26.6h-0.7v22.8h-43.3v-167.7h45.6v98.3c0,4.6,0.5,9.5,2.1,13.7
			c3.8,9.9,13,21.5,27.7,21.5c18.4,0,27-15.5,27-38v-95.6h45.5v99.5c0,4.4,0.6,9.7,1.9,13.6c3.7,11.3,13.7,20.4,27.3,20.4
			c18.6,0,27.6-15.3,27.6-41.7v-91.9h45.5v98.8c0,52.1-26.4,72.7-56.3,72.7c-13.2,0-23.7-3.3-33.1-9.1c-7.9-4.9-15-11.8-21.2-20.9
			h-0.7C871.3-121.6,854.3-109.7,832.3-109.7L832.3-109.7z M1082.5-109.7c-28.2,0-50.5-7.9-62.7-15l8.9-30.5
			c11.1,7,28.9,12.9,45.7,12.9c27.8,0.1,32.4-15.7,32.4-25.9v-2.4c-60.7,0.1-99-20.9-99-63.7c0-26.1,19.5-50.6,53.5-50.6
			c20.9,0,38.3,8.3,48.8,21.7h1c0,0,6.9-29,45.1-17.9c-2,12.1-2.7,24.9-2.7,40.4v59.6C1153.5-143.1,1137.3-109.7,1082.5-109.7
			L1082.5-109.7z M1271.7-109.7c-17.4,0-37.3-11.3-45.6-35.4h-1.3v31.6h-41v-167.7h46.8v85.9c0,4.6,0.3,8.7,1,12.4
			c3.5,18,17.2,29.5,37,29.5c5.4,0,9.3-0.6,13.5-1.2v43.9C1278.5-110,1276.1-109.7,1271.7-109.7L1271.7-109.7z M587-200.3v-20.9
			c0-3.1-0.3-6.3-1.1-9.1c-3.5-11.6-15.5-21.4-30.6-21.4c-12.5,0-22.5,7.1-22.5,22.2C532.7-206.6,558.1-200.2,587-200.3L587-200.3z
			 M1108.3-200.3v-20.9c0-3.1-0.3-6.3-1.1-9.1c-3.5-11.6-15.5-21.4-30.6-21.4c-12.5,0-22.5,7.1-22.5,22.2
			C1054-206.6,1079.4-200.2,1108.3-200.3L1108.3-200.3z"/>
		<path class="st5" d="M1630,22.7c-14.6,0-26.3-8.2-26.3-18.1l8.9-100.6c1-6.1,8.4-10.7,17.4-10.7c9,0,16.4,4.7,17.4,10.7l8.9,100.6
			C1656.3,14.6,1644.6,22.7,1630,22.7L1630,22.7z M1485.2-58c-7.6-0.2-16.2-5.9-21.7-15.4c-7.3-12.7-6-26.8,2.5-31.8l91.6-42.6
			c5.7-2.1,13.5,1.9,18,9.7v0c4.5,7.8,4.2,16.6-0.6,20.4l-82.7,58C1490.1-58.5,1487.7-57.9,1485.2-58L1485.2-58z M1774.8-58
			c-2.5,0.1-4.9-0.5-7.1-1.7l-82.7-58c-4.7-3.9-5.1-12.7-0.6-20.4l0,0c4.5-7.8,12.3-11.8,18-9.7l91.6,42.6c8.6,5,9.9,19.1,2.6,31.8
			C1791-63.9,1782.4-58.1,1774.8-58L1774.8-58z M1561-190.7c-1.2,0-2.3-0.2-3.4-0.6l-91.6-42.6c-8.6-5-9.9-19.2-2.5-31.8
			c7.3-12.6,20.2-18.7,28.8-13.7l82.7,58c4.8,3.9,5.1,12.7,0.6,20.5l0,0C1571.9-194.6,1566.1-190.8,1561-190.7L1561-190.7z
			 M1699-190.7c-5.1-0.1-10.9-3.9-14.6-10.3l0,0c-4.5-7.8-4.2-16.5,0.6-20.5l82.7-58c8.6-5,21.5,1.1,28.8,13.7
			c7.3,12.7,6.1,26.9-2.6,31.8l-91.6,42.6C1701.3-190.9,1700.2-190.7,1699-190.7L1699-190.7z M1629.9-232.4c-9,0-16.4-4.7-17.3-10.7
			l-8.9-100.6c0-10,11.6-18.1,26.3-18.1c14.7,0,26.3,8.2,26.3,18.1l-8.9,100.6C1646.4-237.1,1639-232.4,1629.9-232.4L1629.9-232.4
			L1629.9-232.4z"/>
	</g>
</g>
</svg>
