<?xml version="1.0" encoding="utf-8"?>
<!-- Generator: Adobe Illustrator 22.0.1, SVG Export Plug-In . SVG Version: 6.00 Build 0)  -->
<svg version="1.1" xmlns="http://www.w3.org/2000/svg" xmlns:xlink="http://www.w3.org/1999/xlink" x="0px" y="0px"
	 viewBox="0 0 856 540" style="enable-background:new 0 0 856 540;" xml:space="preserve">
<style type="text/css">
	.st0{fill-rule:evenodd;clip-rule:evenodd;fill:#FFFFFF;}
	.st1{fill-rule:evenodd;clip-rule:evenodd;fill:url(#SVGID_1_);}
	.st2{fill-rule:evenodd;clip-rule:evenodd;fill:url(#SVGID_2_);}
	.st3{fill:none;}
	.st4{fill:url(#SVGID_3_);}
	.st5{fill:#FFFFFF;}
	.st6{fill:url(#SVGID_4_);}
	.st7{fill:url(#SVGID_5_);}
	.st8{fill:url(#SVGID_6_);}
	.st9{fill-rule:evenodd;clip-rule:evenodd;}
	.st10{fill-rule:evenodd;clip-rule:evenodd;fill:url(#SVGID_7_);}
	.st11{fill-rule:evenodd;clip-rule:evenodd;fill:url(#SVGID_8_);}
	.st12{fill-rule:evenodd;clip-rule:evenodd;fill:url(#SVGID_9_);}
	.st13{fill-rule:evenodd;clip-rule:evenodd;fill:url(#SVGID_10_);}
	.st14{fill-rule:evenodd;clip-rule:evenodd;fill:url(#SVGID_11_);}
	.st15{fill-rule:evenodd;clip-rule:evenodd;fill:url(#SVGID_12_);}
	.st16{fill-rule:evenodd;clip-rule:evenodd;fill:url(#SVGID_13_);}
	.st17{fill-rule:evenodd;clip-rule:evenodd;fill:url(#SVGID_14_);}
	.st18{fill-rule:evenodd;clip-rule:evenodd;fill:url(#SVGID_15_);}
	.st19{fill-rule:evenodd;clip-rule:evenodd;fill:url(#SVGID_16_);}
	.st20{fill-rule:evenodd;clip-rule:evenodd;fill:url(#SVGID_17_);}
	.st21{fill:url(#SVGID_18_);}
	.st22{fill:url(#SVGID_19_);}
	.st23{fill:url(#SVGID_20_);}
	.st24{fill:url(#SVGID_21_);}
	.st25{fill:url(#SVGID_22_);}
	.st26{fill:url(#SVGID_23_);}
	.st27{fill:url(#SVGID_24_);}
	.st28{fill:url(#SVGID_25_);}
	.st29{fill:url(#SVGID_26_);}
	.st30{fill:url(#SVGID_27_);}
	.st31{fill:url(#SVGID_28_);}
	.st32{fill:url(#SVGID_29_);}
	.st33{fill:url(#SVGID_30_);}
	.st34{fill:url(#SVGID_31_);}
	.st35{fill:url(#SVGID_32_);}
	.st36{fill:url(#SVGID_33_);}
	.st37{fill:url(#SVGID_34_);}
	.st38{fill:url(#SVGID_35_);}
	.st39{fill:url(#SVGID_36_);}
	.st40{fill:url(#SVGID_37_);}
	.st41{opacity:0.2;enable-background:new    ;}
	.st42{fill:url(#SVGID_38_);}
	.st43{fill:url(#SVGID_39_);}
	.st44{fill:url(#SVGID_40_);}
	.st45{fill:url(#SVGID_41_);}
	.st46{fill:url(#SVGID_42_);}
	.st47{fill:url(#SVGID_43_);}
	.st48{opacity:0.12;enable-background:new    ;}
	.st49{fill:url(#SVGID_44_);}
	.st50{fill:url(#SVGID_45_);}
	.st51{fill:url(#SVGID_46_);}
	.st52{fill:url(#SVGID_47_);}
	.st53{fill:url(#SVGID_48_);}
	.st54{fill:url(#SVGID_49_);}
	.st55{fill:url(#SVGID_50_);}
	.st56{opacity:0.25;fill:#FFFFFF;enable-background:new    ;}
	.st57{fill:url(#SVGID_51_);}
	.st58{fill:url(#SVGID_52_);}
	.st59{fill:url(#SVGID_53_);}
	.st60{fill:url(#SVGID_54_);}
	.st61{fill:url(#SVGID_55_);}
	.st62{fill:url(#SVGID_56_);}
	.st63{fill:url(#SVGID_57_);}
	.st64{fill:url(#SVGID_58_);}
	.st65{fill:url(#Apple_1_);}
	.st66{fill:#010101;}
	.st67{fill:#F6EB16;}
	.st68{fill:url(#SVGID_59_);}
	.st69{fill:url(#SVGID_60_);}
	.st70{fill:url(#Nintendo_eShop_2_);}
	.st71{fill:url(#SVGID_61_);}
	.st72{fill:url(#SVGID_62_);}
	.st73{fill:url(#SVGID_63_);}
	.st74{fill:url(#SVGID_64_);}
	.st75{fill:url(#SVGID_65_);}
	.st76{fill:url(#SVGID_66_);}
	.st77{fill:url(#SVGID_67_);}
	.st78{fill:#253B80;}
	.st79{fill:url(#SVGID_68_);}
	.st80{fill:#030C62;}
	.st81{fill:url(#SVGID_69_);}
	.st82{fill:url(#SVGID_70_);}
	.st83{fill:url(#SVGID_71_);}
	.st84{fill:url(#SVGID_72_);}
	.st85{fill:url(#SVGID_73_);}
	.st86{fill:url(#SVGID_74_);}
	.st87{fill:url(#SVGID_75_);}
	.st88{fill:url(#SVGID_76_);}
	.st89{fill:url(#SVGID_77_);}
	.st90{fill:url(#SVGID_78_);}
	.st91{fill:url(#SVGID_79_);}
	.st92{fill:url(#SVGID_80_);}
	.st93{fill:url(#SVGID_81_);}
	.st94{fill-rule:evenodd;clip-rule:evenodd;fill:#86A0CE;}
	.st95{fill-rule:evenodd;clip-rule:evenodd;fill:#16315D;}
	.st96{fill-rule:evenodd;clip-rule:evenodd;fill:#E9EFFE;}
	.st97{fill:#EE018C;}
	.st98{fill:#E9EFFE;}
</style>
<g id="Layer_1">
	<linearGradient id="SVGID_1_" gradientUnits="userSpaceOnUse" x1="428" y1="540" x2="428" y2="0">
		<stop  offset="0" style="stop-color:#6EBC00"/>
		<stop  offset="0.9994" style="stop-color:#93EB4C"/>
	</linearGradient>
	<rect class="st1" width="856" height="540"/>
	<g id="Xbox_1_">
		<g>
			<g>
				<linearGradient id="SVGID_2_" gradientUnits="userSpaceOnUse" x1="427.9988" y1="449.9274" x2="427.9988" y2="90.0009">
					<stop  offset="0.333" style="stop-color:#ECFDD5"/>
					<stop  offset="1" style="stop-color:#FFFFFF"/>
				</linearGradient>
				<path style="fill:url(#SVGID_2_);" d="M301.5,141.9c-0.2,0.2,16.1-13.7,77,47c0.2,0.2,0.3,0.3,0.3,0.6c0,0.2-0.1,0.4-0.2,0.5
					c-36.2,43.1-106.4,145.9-92.7,188.3c0.1,0.3,0.1,0.7-0.2,0.9c-0.3,0.2-0.7,0-0.9-0.3c-23.1-30.3-36.8-68-36.8-109
					C248,219.8,268.5,174.5,301.5,141.9L301.5,141.9c0,0,0-0.1,0.2-0.2 M554.5,141.9c0.2,0.2-16-13.8-77,46.9
					c-0.2,0.2-0.3,0.3-0.3,0.6c0,0.2,0.1,0.4,0.2,0.5c36.2,43.1,106.3,146,92.6,188.4c-0.1,0.3-0.1,0.7,0.2,0.9c0.3,0.2,0.7,0,1-0.3
					c23.1-30.3,36.8-68,36.8-109C608,219.8,587.5,174.5,554.5,141.9L554.5,141.9c0,0,0-0.1-0.2-0.2 M428,90c-36.2,0-66.5,10-94,26.5
					c-0.3,0.2-0.5,0.6-0.3,0.9c0.2,0.3,0.5,0.4,0.9,0.3c30.8-7.9,79.8,17.8,93.1,25.4c0.1,0.1,0.2,0.2,0.4,0.2s0.3-0.1,0.4-0.2
					c5-3,58-33.1,92.8-25.6c0.4,0.1,0.7,0,0.9-0.3c0.2-0.3,0-0.7-0.3-0.9C494.2,100,464.3,90,428,90 M428,234.3
					c-0.2,0-0.5,0.2-0.6,0.3c-53.8,40.9-146,142.2-117.9,170.8l0,0c0,0,0,0,0,0h0c31.6,27.7,73.1,44.5,118.5,44.5
					c45.4,0,86.8-16.8,118.5-44.5h0c0,0,0,0,0,0l0,0c28.1-28.6-64.1-129.9-117.9-170.8C428.5,234.5,428.2,234.3,428,234.3"/>
			</g>
		</g>
	</g>
</g>
<g id="Layer_2">
</g>
<g id="Layer_3">
</g>
</svg>
